<?xml version="1.0" encoding="UTF-8" standalone="no"?>
<!-- Created with Inkscape (http://www.inkscape.org/) -->

<svg
   width="672.58881mm"
   height="266.0278mm"
   viewBox="0 0 672.58881 266.0278"
   version="1.1"
   id="svg5"
   xml:space="preserve"
   xmlns:inkscape="http://www.inkscape.org/namespaces/inkscape"
   xmlns:sodipodi="http://sodipodi.sourceforge.net/DTD/sodipodi-0.dtd"
   xmlns="http://www.w3.org/2000/svg"
   xmlns:svg="http://www.w3.org/2000/svg"><sodipodi:namedview
     id="namedview7"
     pagecolor="#ffffff"
     bordercolor="#000000"
     borderopacity="0.25"
     inkscape:showpageshadow="2"
     inkscape:pageopacity="0.0"
     inkscape:pagecheckerboard="0"
     inkscape:deskcolor="#d1d1d1"
     inkscape:document-units="mm"
     showgrid="false" /><defs
     id="defs2" /><g
     inkscape:label="레이어 1"
     inkscape:groupmode="layer"
     id="layer1"
     transform="translate(143.96526,-418.82534)"><path
       style="fill:#000000;stroke-width:0.0846667"
       d="m -111.19913,684.81756 c -0.25611,-0.0167 -1.15146,-0.0714 -1.98966,-0.12148 -4.18122,-0.25002 -8.47318,-0.86539 -12.74234,-1.82694 -5.3897,-1.21394 -9.13975,-2.38369 -13.21467,-4.12202 -2.55754,-1.09103 -3.27725,-1.54292 -3.95393,-2.48253 -0.3414,-0.47406 -0.43313,-0.69295 -0.62863,-1.50009 l -0.2289,-0.94504 -0.004,-11.13543 -0.004,-11.13543 0.23731,-0.9719 c 0.20333,-0.83277 0.29349,-1.04907 0.62983,-1.51092 0.23358,-0.32073 0.62341,-0.70523 0.96265,-0.94946 0.4945,-0.35601 0.69516,-0.44 1.51302,-0.63325 l 0.94291,-0.2228 0.92631,0.22099 c 0.50947,0.12154 1.13585,0.30166 1.39197,0.40026 0.66439,0.2558 3.04256,1.25154 3.34433,1.40029 1.46318,0.7212 7.57741,3.02294 11.78321,4.43589 4.69236,1.57639 6.94835,2.0847 11.4578,2.58164 1.65811,0.18272 6.46061,0.25969 7.96501,0.12766 2.54235,-0.22313 3.478563,-0.45207 5.216443,-1.27563 1.92492,-0.91219 2.73837,-1.76917 3.53106,-3.71999 0.25468,-0.62677 0.39085,-1.57791 0.38845,-2.71337 -0.003,-1.27551 -0.10644,-1.7641 -0.58934,-2.77535 -0.41603,-0.8712 -0.48197,-0.95687 -1.55156,-2.01598 -2.20768,-2.18602 -3.54884,-3.03771 -9.964733,-6.32797 -1.23402,-0.63284 -4.11057,-2.05967 -6.39233,-3.17075 -8.94404,-4.35516 -13.10305,-6.87399 -17.78001,-10.76817 -3.89366,-3.24197 -7.23256,-7.47105 -9.39598,-11.901 -1.07376,-2.19871 -1.50898,-3.47907 -2.23044,-6.56167 -0.87318,-3.73087 -1.06524,-5.57002 -1.00798,-9.652 0.053,-3.7794 0.24556,-5.292 1.16915,-9.18487 1.05119,-4.43069 2.41531,-7.49298 4.8848,-10.9658 2.19154,-3.08195 4.35995,-5.29489 7.25779,-7.40682 4.7045,-3.42864 8.83067,-5.24905 15.32467,-6.76106 3.29398,-0.76695 5.7752,-1.16358 8.93233,-1.42791 1.74837,-0.14638 8.291253,-0.1455 10.160003,10e-4 4.54972,0.35757 7.58029,0.86501 12.75862,2.13634 4.66152,1.14444 8.97992,2.57178 14.54638,4.80793 2.96372,1.19057 3.82253,1.69895 4.52987,2.68144 0.35989,0.4999 0.43943,0.69131 0.63288,1.52321 l 0.22126,0.95146 -0.28823,1.13319 c -0.15852,0.62326 -0.40477,1.41895 -0.54721,1.7682 -0.14245,0.34925 -1.84609,4.445 -3.78588,9.10166 -3.87984,9.31396 -3.81654,9.18452 -4.88639,9.99089 -0.50582,0.38125 -0.65923,0.44624 -1.53577,0.65063 l -0.97381,0.22707 -1.00136,-0.23837 c -0.55075,-0.13112 -1.49666,-0.43745 -2.10203,-0.68074 -3.45443,-1.38831 -7.80523,-2.93018 -10.86123,-3.84907 -2.60021,-0.78184 -3.1388,-0.91772 -4.6751,-1.17944 -2.81906,-0.48024 -4.95341,-0.66392 -7.747003,-0.66665 -3.3022,-0.003 -4.48996,0.22057 -6.56162,1.23643 -0.73263,0.35926 -1.01842,0.56008 -1.62518,1.14201 -0.59269,0.56842 -0.80995,0.84903 -1.11436,1.43933 -0.58124,1.1271 -0.72069,1.62962 -0.78282,2.82084 -0.0825,1.5822 0.0411,2.35677 0.5432,3.40431 0.46891,0.97827 1.10369,1.71955 2.41715,2.82269 1.78252,1.4971 4.2537,2.88132 11.634773,6.51715 9.69931,4.77779 10.5458,5.21792 13.94619,7.25132 2.52497,1.50991 5.98596,3.88847 7.93873,5.45589 2.9719,2.38543 5.34208,5.03964 7.61635,8.52906 1.92105,2.94745 2.8982,5.29399 3.79015,9.10166 0.69551,2.96914 0.96097,4.80821 1.11402,7.71805 0.10973,2.08599 0.0261,4.553 -0.22336,6.59062 -0.27217,2.22297 -1.0182,5.7308 -1.56658,7.366 -0.13274,0.39582 -0.3411,1.03343 -0.46302,1.41693 -0.12192,0.38349 -0.40417,1.08834 -0.62722,1.56633 -0.22305,0.47799 -0.42969,0.96432 -0.4592,1.08074 -0.0542,0.21391 -1.13748,2.14856 -1.83813,3.2828 -0.58372,0.94495 -1.86294,2.6865 -2.96814,4.04087 -0.92438,1.13278 -3.18907,3.29099 -4.52426,4.31153 -0.80386,0.61443 -2.4268,1.77396 -2.75167,1.96596 -0.16298,0.0963 -0.70034,0.42394 -1.19412,0.72802 -3.61698,2.22741 -7.60602,3.78555 -12.94521,5.05646 -3.91215,0.93123 -6.67727,1.3652 -10.837343,1.70084 -1.09665,0.0885 -8.18055,0.17676 -9.144,0.11395 z m 9.398,-4.39157 c 7.684933,-0.60884 13.995423,-2.23663 19.333333,-4.98703 4.13182,-2.12895 7.02198,-4.38682 9.7846,-7.644 0.50143,-0.59119 1.59793,-2.06981 1.96616,-2.65134 0.88087,-1.39114 1.72404,-2.89571 1.93731,-3.457 0.0868,-0.22832 0.30791,-0.73569 0.49145,-1.12748 0.18354,-0.39178 0.45562,-1.09274 0.60463,-1.55768 0.149,-0.46493 0.37709,-1.16918 0.50685,-1.565 0.12976,-0.39582 0.29652,-0.98637 0.37057,-1.31233 1.38037,-6.07618 1.23443,-13.25756 -0.37939,-18.669 -1.26798,-4.25176 -3.70125,-8.21091 -7.1813,-11.68457 -3.64459,-3.63791 -9.66658,-7.56846 -17.48424,-11.41196 -5.94237,-2.92153 -12.495423,-6.22062 -13.844633,-6.96998 -2.69597,-1.49735 -4.45956,-2.75995 -6.01753,-4.30814 -1.75962,-1.74856 -2.51843,-3.11489 -3.01525,-5.4293 -0.21201,-0.98762 -0.21158,-3.53717 7.6e-4,-4.5614 0.91903,-4.43295 3.86979,-7.36375 8.65102,-8.59247 1.82343,-0.46859 2.97042,-0.58725 5.63033,-0.58244 3.327153,0.006 6.182213,0.31165 9.466273,1.01334 3.43566,0.73408 8.78272,2.46651 14.60402,4.73163 1.15461,0.44928 2.13965,0.80342 2.18898,0.78696 0.0493,-0.0164 0.17641,-0.23812 0.28241,-0.49262 0.10599,-0.2545 1.55323,-3.73933 3.21609,-7.74406 1.66286,-4.00474 3.17611,-7.62424 3.36277,-8.04334 0.18666,-0.4191 0.46458,-1.10856 0.61759,-1.53213 l 0.27821,-0.77015 -0.858,-0.40689 c -0.93748,-0.44458 -1.23408,-0.56807 -3.18633,-1.32653 -5.45952,-2.12105 -9.45708,-3.42075 -13.48529,-4.38439 -1.23555,-0.29557 -1.9346,-0.44008 -4.9614,-1.02565 -0.48309,-0.0935 -1.25748,-0.20604 -1.72087,-0.2502 -0.46339,-0.0442 -1.32544,-0.13647 -1.91565,-0.20516 -2.2561,-0.26254 -3.93119,-0.3397 -7.3808,-0.33996 -3.613683,0 -5.101353,0.0747 -7.620003,0.38392 -8.39744,1.03099 -15.33152,3.77954 -20.63038,8.17754 -1.08183,0.8979 -3.03604,2.89185 -3.88694,3.96599 -3.41501,4.31092 -5.32507,9.10083 -6.09391,15.28195 -0.1788,1.43741 -0.25583,5.7827 -0.13046,7.35851 0.47352,5.95149 1.92364,10.12578 5.17924,14.90883 1.97077,2.8954 4.72594,5.65532 8.38819,8.40268 2.75137,2.06403 6.92107,4.51552 11.58626,6.81192 1.00119,0.49282 3.43242,1.68911 5.40275,2.65841 3.63387,1.78767 7.52729,3.79201 8.990593,4.62834 1.13262,0.64734 3.29651,2.1004 4.14837,2.78565 1.04933,0.84409 2.56926,2.34184 3.12509,3.07947 1.36122,1.80648 2.03819,3.93783 2.03937,6.42067 9.7e-4,2.04385 -0.36239,3.64288 -1.22432,5.38775 -0.82522,1.67053 -1.86766,2.83913 -3.47418,3.89463 -2.85179,1.87364 -6.370903,2.6871 -11.641673,2.69099 -7.04626,0.005 -13.17959,-1.2448 -21.844,-4.45192 -0.44238,-0.16375 -1.37583,-0.50734 -2.07433,-0.76354 -2.17878,-0.79913 -4.94959,-1.89939 -6.01134,-2.38704 -0.47902,-0.22001 -2.84981,-1.21389 -3.429,-1.43749 -0.20955,-0.0809 -0.42862,-0.16604 -0.48683,-0.1892 -0.0843,-0.0335 -0.10583,2.22022 -0.10583,11.09956 V 673.775 l 0.33456,0.2112 c 0.18401,0.11617 0.68884,0.36008 1.12183,0.54204 0.433,0.18196 1.11112,0.47141 1.50694,0.64324 0.39582,0.17182 0.91017,0.38285 1.143,0.46896 0.23283,0.0861 0.74718,0.27659 1.143,0.42329 6.90204,2.55809 14.54435,4.06006 22.81767,4.48443 2.06359,0.10585 7.89763,0.0336 9.86367,-0.12217 z m 223.13902,4.3912 c -4.73471,-0.28172 -7.35617,-0.58937 -10.75267,-1.26194 -5.61965,-1.11278 -10.0845,-2.50166 -13.914787,-4.32846 -0.62156,-0.29645 -1.14619,-0.539 -1.16584,-0.539 -0.0197,0 -0.17786,-0.089 -0.35156,-0.19779 -0.17369,-0.10879 -0.63966,-0.36439 -1.03548,-0.56801 -0.39582,-0.20361 -0.91786,-0.4956 -1.1601,-0.64887 -0.24223,-0.15326 -0.46697,-0.27866 -0.49942,-0.27866 -0.21533,0 -5.55577,-3.74655 -5.83348,-4.09244 -0.0466,-0.058 -0.23707,-0.21739 -0.42333,-0.3542 -0.61077,-0.44862 -3.50773,-3.20011 -3.90438,-3.70833 -0.10244,-0.13125 -0.41639,-0.4932 -0.69768,-0.80434 -1.14844,-1.27028 -4.17598,-5.21922 -4.51078,-5.88357 -0.0983,-0.19513 -0.33941,-0.58339 -0.53573,-0.86279 -0.1963,-0.2794 -0.48272,-0.74612 -0.63648,-1.03716 -0.15374,-0.29104 -0.30527,-0.52917 -0.33671,-0.52917 -0.0314,0 -0.32873,0.2286 -0.66066,0.508 -0.33193,0.2794 -0.627,0.508 -0.65571,0.508 -0.0645,0 -1.23787,0.90167 -2.69946,2.07433 -0.34824,0.2794 -0.92997,0.71755 -1.29274,0.97367 -0.36276,0.25612 -0.92734,0.69676 -1.25462,0.97922 -0.32728,0.28246 -0.70935,0.58693 -0.84905,0.67661 -0.48086,0.30868 -2.03267,1.50149 -2.42086,1.8608 -0.21387,0.19796 -0.51867,0.42642 -0.67733,0.5077 -0.15867,0.0813 -0.45993,0.29038 -0.66948,0.46466 -0.36254,0.30153 -1.32998,1.04948 -2.18813,1.69168 -1.19243,0.89236 -2.24436,1.7485 -2.8072,2.28473 -0.34925,0.33274 -0.8255,0.69728 -1.05834,0.81009 -0.23283,0.11281 -0.78528,0.51303 -1.22766,0.88938 -0.44239,0.37635 -0.91485,0.74271 -1.04991,0.81413 -0.30564,0.16162 -0.90822,0.64137 -1.8524,1.47481 -0.68711,0.60652 -1.33395,1.10297 -2.00836,1.54141 -0.27928,0.18156 -0.29957,0.22658 -0.3526,0.78221 -0.0309,0.32427 -0.15108,0.9748 -0.26697,1.44565 -0.17777,0.72228 -0.27484,0.94288 -0.62107,1.41137 -0.2257,0.3054 -0.64765,0.7291 -0.93767,0.94154 -0.46287,0.33905 -0.65426,0.41616 -1.56633,0.63099 l -1.03903,0.24475 -11.85333,-0.0368 -11.85334,-0.0368 -0.97366,-0.21796 c -0.85277,-0.19088 -1.04548,-0.26824 -1.55194,-0.62299 -0.39421,-0.27611 -0.70721,-0.5891 -0.98331,-0.98331 -0.35181,-0.50227 -0.43448,-0.70625 -0.62899,-1.55194 l -0.22395,-0.97367 8.5e-4,-22.2885 8.5e-4,-22.2885 H 1.1984729 -16.960117 l -0.0279,22.4155 -0.0279,22.4155 -0.22569,0.86324 c -0.28118,1.07552 -0.73435,1.75541 -1.57381,2.36119 -0.48474,0.34981 -0.69702,0.43889 -1.53447,0.64394 l -0.9719,0.23797 -11.9821,-0.004 -11.9821,-0.004 -0.94504,-0.22891 c -0.80848,-0.19581 -1.02567,-0.28697 -1.50309,-0.63079 -0.34068,-0.24534 -0.71463,-0.61929 -0.95997,-0.95997 -0.34382,-0.47742 -0.43498,-0.69461 -0.63079,-1.50309 l -0.22891,-0.94504 v -56.642 -56.64201 l 0.22891,-0.94504 c 0.19581,-0.80849 0.28697,-1.02568 0.63079,-1.5031 0.24534,-0.34067 0.61929,-0.71463 0.95997,-0.95997 0.47742,-0.34382 0.69461,-0.43497 1.50309,-0.63079 l 0.94504,-0.2289 11.9821,-0.004 11.9821,-0.004 0.98287,0.23976 c 0.85547,0.20867 1.05431,0.29221 1.53398,0.64441 0.84081,0.61737 1.27945,1.27578 1.5611,2.34326 l 0.23188,0.8789 0.0262,20.17183 0.0261,20.17184 H 1.1986829 19.357023 l -8.5e-4,-20.04484 -8.5e-4,-20.04483 0.22395,-0.97367 c 0.19451,-0.84569 0.27718,-1.04967 0.62899,-1.55194 0.2761,-0.3942 0.5891,-0.7072 0.98331,-0.98331 0.50226,-0.3518 0.70624,-0.43447 1.55194,-0.62898 l 0.97366,-0.22395 11.89743,8.5e-4 11.89744,8.5e-4 0.98387,0.24 c 0.84181,0.20535 1.06428,0.29738 1.5409,0.63749 0.34834,0.24857 0.70579,0.60595 0.95406,0.95388 0.34417,0.4823 0.43017,0.69335 0.64588,1.585 l 0.24886,1.02863 -0.0576,31.73812 c -0.037,20.36341 -0.0284,31.72004 0.024,31.68767 0.0449,-0.0277 0.52396,-0.63199 1.06462,-1.34278 0.54065,-0.71079 1.2902,-1.69239 1.66567,-2.18134 0.37547,-0.48895 1.06128,-1.3843 1.52403,-1.98967 0.90457,-1.18336 2.56375,-3.34616 3.66975,-4.78366 0.3762,-0.48895 0.87505,-1.13972 1.10858,-1.44614 1.44156,-1.89159 4.5448,-5.93797 5.83868,-7.61321 0.44959,-0.58208 0.87413,-1.13961 0.94344,-1.23896 0.0693,-0.0993 0.21626,-0.74704 0.32656,-1.43933 0.37074,-2.32694 1.37676,-6.80428 2.1194,-9.43253 1.8689,-6.61409 4.38316,-11.99234 7.91447,-16.92984 1.77587,-2.48303 2.84335,-3.76485 4.78537,-5.74623 1.74147,-1.77676 3.29775,-3.13435 5.31724,-4.63838 4.5258,-3.3706 8.42165,-5.45641 13.269097,-7.10417 l 1.31234,-0.44609 0.84666,-1.10069 c 0.97732,-1.27053 1.74707,-2.27442 3.05126,-3.97937 0.51044,-0.6673 1.34718,-1.75947 1.85941,-2.42704 0.51224,-0.66757 1.39385,-1.81705 1.95915,-2.55439 0.5653,-0.73736 1.30571,-1.70259 1.64535,-2.14497 0.33965,-0.44239 1.09902,-1.43299 1.6875,-2.20134 0.58848,-0.76835 1.25777,-1.64128 1.48731,-1.93983 0.22955,-0.29856 0.60842,-0.79398 0.84193,-1.10093 0.23352,-0.30695 0.68829,-0.90087 1.01061,-1.31983 0.32232,-0.41896 0.88926,-1.16179 1.25986,-1.65074 0.37061,-0.48895 0.76091,-0.9652 0.86734,-1.05833 0.10643,-0.0931 0.27239,-0.38118 0.3688,-0.6401 0.25695,-0.69006 0.65559,-1.30995 1.44683,-2.24979 0.38684,-0.45949 0.83658,-1.045 0.99944,-1.30111 0.78119,-1.22862 1.26222,-1.93081 1.51222,-2.20754 0.15056,-0.16664 0.36627,-0.46589 0.47936,-0.66498 0.38058,-0.67005 1.43339,-1.87011 1.68891,-1.92518 0.15903,-0.0343 0.36592,-0.22078 0.63097,-0.56881 0.2169,-0.28481 0.75256,-0.93693 1.19036,-1.44916 0.43779,-0.51223 1.43775,-1.76953 2.22211,-2.794 0.78436,-1.02447 1.71949,-2.24367 2.07806,-2.70933 0.35858,-0.46567 1.00203,-1.30387 1.42991,-1.86266 0.42788,-0.5588 1.17271,-1.53035 1.65519,-2.159 0.48247,-0.62865 1.21208,-1.58115 1.62136,-2.11668 0.40927,-0.53551 1.03532,-1.35172 1.3912,-1.81379 0.35588,-0.46205 1.0688,-1.3955 1.58426,-2.07433 0.51547,-0.67881 1.08446,-1.42471 1.26443,-1.65754 0.17998,-0.23283 0.76293,-0.99483 1.29547,-1.69333 0.53253,-0.6985 1.40716,-1.8415 1.94361,-2.54 0.53645,-0.6985 1.23715,-1.61291 1.55711,-2.03201 1.66018,-2.17461 2.05917,-2.69679 2.67797,-3.50489 0.37073,-0.48413 0.96938,-1.26518 1.33034,-1.73567 0.36095,-0.47049 1.03489,-1.35074 1.49763,-1.9561 0.46276,-0.60537 1.0021,-1.31022 1.19856,-1.56634 0.19646,-0.25611 0.6485,-0.84666 1.00453,-1.31233 1.41783,-1.85443 2.9411,-3.84286 3.40516,-4.445 0.50468,-0.65486 3.07403,-4.00976 4.6415,-6.0606 0.48895,-0.63973 1.17475,-1.53432 1.524,-1.98798 0.34925,-0.45365 0.95885,-1.25028 1.35466,-1.77027 0.39582,-0.52 1.00542,-1.31774 1.35467,-1.77276 0.34925,-0.45502 1.03505,-1.35143 1.524,-1.99203 0.48895,-0.6406 1.3081,-1.70939 1.82034,-2.37511 0.51223,-0.66571 1.33138,-1.73492 1.82033,-2.37603 0.48895,-0.6411 1.18479,-1.55007 1.54632,-2.01993 0.36152,-0.46986 0.78871,-1.02574 0.9493,-1.23529 0.16059,-0.20955 0.58869,-0.7672 0.95135,-1.23923 0.36265,-0.47203 1.23691,-1.61503 1.9428,-2.54 0.70589,-0.92497 2.07169,-2.71047 3.03512,-3.96777 3.26568,-4.26183 4.12141,-5.38088 5.37372,-7.02733 0.53129,-0.6985 1.4213,-1.86055 1.9778,-2.58234 1.41214,-1.83153 1.29229,-1.67478 3.10756,-4.064 0.90221,-1.18745 1.80713,-2.36855 2.01095,-2.62466 0.53299,-0.66974 0.48892,-0.6124 1.45797,-1.89666 0.48846,-0.64734 1.18404,-1.56174 1.54572,-2.032 0.3617,-0.47025 0.93008,-1.21696 1.2631,-1.65934 1.06133,-1.40994 1.23192,-1.63379 1.90596,-2.50101 0.69572,-0.8951 2.8789,-3.72927 3.45466,-4.48479 0.18627,-0.24442 0.6975,-0.91573 1.13607,-1.4918 1.05954,-1.39175 1.21564,-1.59428 1.91653,-2.48674 0.78853,-1.00404 2.21303,-2.86331 3.50811,-4.57881 1.95646,-2.59159 2.39173,-3.08533 3.34529,-3.79468 1.00435,-0.74712 1.75281,-1.25203 2.06858,-1.39548 0.16615,-0.0755 0.48028,-0.26093 0.69808,-0.41211 0.428,-0.29711 1.60797,-0.61806 3.52176,-0.95793 1.87235,-0.3325 2.07827,-0.34009 3.08842,-0.11384 2.17286,0.48667 2.82937,0.65208 3.05859,0.77061 0.13417,0.0694 0.43909,0.18368 0.6776,0.254 0.2385,0.0703 0.47174,0.15847 0.51831,0.1959 0.12549,0.10085 1.64705,0.76045 1.98803,0.86182 0.1621,0.0482 0.4547,0.19769 0.65026,0.33223 0.19555,0.13455 0.4014,0.24463 0.45744,0.24463 0.3388,0 2.74302,1.77197 3.59807,2.65187 0.18909,0.19459 0.51308,0.50619 0.71997,0.69246 0.7301,0.65732 2.36523,2.65228 2.36523,2.88574 0,0.0386 0.14939,0.28321 0.33198,0.5435 0.18258,0.2603 0.41557,0.7382 0.51774,1.06201 0.10218,0.32381 0.27652,0.74772 0.38742,0.94202 0.1109,0.1943 0.31575,0.83359 0.45523,1.42065 0.22125,0.93128 0.25792,1.26411 0.28759,2.61007 l 0.034,1.54268 -0.46712,1.905 c -0.3558,1.45098 -0.53281,2.01598 -0.74269,2.37066 -0.15155,0.25612 -0.41184,0.71647 -0.57841,1.02301 -0.41065,0.75568 -1.0961,1.69768 -1.98364,2.72607 -0.40688,0.47144 -0.85408,0.99718 -0.99378,1.1683 -0.41421,0.50739 -3.46021,4.09593 -3.51575,4.14196 -0.0281,0.0233 -0.25818,0.29302 -0.51132,0.59941 -0.40763,0.49337 -1.75028,2.08028 -7.47534,8.83522 -0.83146,0.98104 -1.78255,2.10755 -2.11354,2.50337 -0.33098,0.39581 -0.85084,1.00773 -1.15525,1.3598 -0.3044,0.35208 -1.0318,1.20933 -1.61643,1.905 -1.89844,2.25901 -4.34825,5.15847 -4.39516,5.20186 -0.0615,0.0569 -1.19181,1.39933 -1.82321,2.16537 -0.78195,0.94868 -2.93313,3.50129 -4.06349,4.82178 -0.55908,0.65311 -1.49276,1.75269 -2.07484,2.4435 -0.58209,0.69082 -1.30599,1.54974 -1.60867,1.90872 -0.30268,0.35898 -0.92834,1.10726 -1.39036,1.66283 -0.46202,0.55558 -0.97637,1.16459 -1.143,1.35336 -0.43599,0.49392 -0.64192,0.73537 -1.47639,1.73111 -1.45411,1.73511 -2.30234,2.73887 -2.63978,3.12374 -0.18801,0.21446 -0.50742,0.61853 -0.70979,0.89793 -0.20236,0.2794 -0.56288,0.69927 -0.80114,0.93306 -0.41659,0.40875 -1.55485,1.73819 -3.43887,4.01643 -0.48895,0.59126 -1.1557,1.37964 -1.48167,1.75196 -0.32597,0.37231 -1.20227,1.39671 -1.94733,2.27643 -0.74507,0.87972 -1.6983,2.00089 -2.11828,2.49147 -0.41999,0.49059 -1.17978,1.38728 -1.68842,1.99265 -0.50865,0.60536 -1.2049,1.43008 -1.54723,1.8327 -0.34233,0.40262 -0.77603,0.95507 -0.96377,1.22767 -0.18774,0.2726 -0.53908,0.68613 -0.78078,0.91896 -0.2417,0.23283 -0.93417,1.00999 -1.53882,1.727 -0.60466,0.71701 -1.46132,1.72899 -1.9037,2.24885 -0.44239,0.51986 -1.29964,1.53179 -1.905,2.24874 -0.60537,0.71695 -1.34832,1.5945 -1.651,1.95012 -0.30269,0.35561 -1.04564,1.23212 -1.651,1.9478 -0.60537,0.71568 -1.42667,1.68366 -1.82512,2.15104 -0.92826,1.08887 -7.35248,8.68108 -8.63122,10.20045 -0.53552,0.63631 -1.25942,1.49647 -1.60867,1.9115 -0.34925,0.41502 -1.2065,1.42594 -1.905,2.24649 -0.6985,0.82056 -1.5367,1.8093 -1.86266,2.19722 -0.32597,0.38791 -0.8239,0.97518 -1.10652,1.30504 -0.28262,0.32987 -1.46137,1.7237 -2.61946,3.09742 -1.15808,1.37371 -2.52935,2.99296 -3.04725,3.59833 -0.51791,0.60537 -1.42183,1.67217 -2.00872,2.37067 -0.58689,0.6985 -1.53709,1.82568 -2.11156,2.50485 -0.57447,0.67918 -2.14939,2.54302 -3.49983,4.14188 -1.35043,1.59888 -2.67235,3.15747 -2.93758,3.46357 l -0.48226,0.55653 0.17557,0.18688 0.17556,0.18688 -0.55161,0.66135 c -0.30338,0.36374 -0.77913,0.9682 -1.05721,1.34324 l -0.5056,0.68191 0.81357,0.10014 c 2.26392,0.27869 7.3644,1.38224 10.27395,2.22289 3.38847,0.97903 6.57463,2.28159 9.73095,3.97818 l 0.81866,0.44006 0.98422,-0.83619 c 0.54133,-0.45989 1.24835,-1.04572 1.57117,-1.30184 0.34983,-0.27756 0.72006,-0.67088 0.91649,-0.97367 0.3785,-0.58346 0.56981,-0.76879 1.79112,-1.73522 0.48895,-0.3869 1.30021,-1.11677 1.8028,-1.62195 0.50259,-0.50517 1.11317,-1.06902 1.35682,-1.25298 0.24366,-0.18396 0.52323,-0.44298 0.62128,-0.57559 0.28723,-0.3885 1.80751,-1.49325 2.08096,-1.51218 0.16212,-0.0112 0.48263,-0.22139 0.97846,-0.64161 0.40554,-0.34371 1.11835,-0.91208 1.58402,-1.26307 0.46567,-0.35098 2.08914,-1.70223 3.60771,-3.00278 1.51858,-1.30054 3.85853,-3.29807 5.19992,-4.43895 1.34137,-1.14088 3.23781,-2.76013 4.21431,-3.59833 0.9765,-0.8382 1.91466,-1.6383 2.0848,-1.778 0.17014,-0.1397 1.37463,-1.16643 2.67664,-2.28163 1.30201,-1.11519 2.90069,-2.48258 3.55262,-3.03863 0.65193,-0.55605 1.58874,-1.35812 2.0818,-1.78238 0.49307,-0.42425 1.35032,-1.15844 1.905,-1.63154 0.92209,-0.78644 2.37404,-2.02626 4.44605,-3.79649 0.43604,-0.37253 1.4428,-1.22978 2.23723,-1.905 0.79444,-0.67522 1.97808,-1.68487 2.63032,-2.24367 0.65224,-0.5588 2.57143,-2.1971 4.26489,-3.64065 1.69345,-1.44357 3.38909,-2.89137 3.7681,-3.21734 0.37901,-0.32597 1.40678,-1.20227 2.28395,-1.94734 0.87715,-0.74506 2.819,-2.40242 4.3152,-3.683 1.49621,-1.28057 2.85292,-2.43788 3.01492,-2.57179 0.162,-0.13391 0.77079,-0.65429 1.35288,-1.1564 0.58208,-0.5021 2.02988,-1.74044 3.21733,-2.75183 2.05119,-1.74709 5.98299,-5.10429 8.12737,-6.93965 0.54407,-0.46566 1.5738,-1.34196 2.28827,-1.94733 0.71448,-0.60537 1.62901,-1.38642 2.0323,-1.73567 0.40329,-0.34925 1.30126,-1.11913 1.99549,-1.71084 1.73214,-1.47635 5.5556,-4.74446 6.16328,-5.26806 1.42774,-1.23021 2.03637,-1.74975 2.6356,-2.24976 0.97516,-0.81371 1.94935,-1.64811 2.66569,-2.28318 0.34925,-0.30963 0.9779,-0.84594 1.397,-1.19181 0.4191,-0.34586 1.1475,-0.97231 1.61867,-1.39209 0.47117,-0.41979 1.24841,-1.08711 1.7272,-1.48292 0.47879,-0.39582 1.44584,-1.21554 2.149,-1.8216 0.70315,-0.60606 1.39695,-1.19661 1.54177,-1.31233 0.33165,-0.26503 1.67342,-1.39376 2.05994,-1.73288 0.16018,-0.14054 0.50529,-0.44603 0.7669,-0.67886 0.47065,-0.41887 1.95779,-1.67097 2.66485,-2.24367 0.20123,-0.16298 0.74127,-0.62247 1.2001,-1.02109 1.34978,-1.17264 4.28183,-3.65637 4.64641,-3.93596 0.6846,-0.52502 2.41644,-1.36546 3.55992,-1.72759 0.32262,-0.10217 0.78717,-0.26305 1.03234,-0.35751 0.37266,-0.14358 0.68505,-0.17612 1.905,-0.19842 0.80258,-0.0147 2.01169,0.007 2.6869,0.0475 l 1.22767,0.0742 1.70621,0.79655 c 0.93842,0.4381 1.87187,0.90987 2.07433,1.04838 0.20248,0.13851 0.52053,0.35452 0.70679,0.48001 0.18627,0.12549 0.60537,0.41912 0.93134,0.6525 0.32596,0.23339 0.76411,0.53651 0.97366,0.67362 0.71362,0.4669 2.29224,1.93358 2.97089,2.76022 0.75311,0.91733 1.09525,1.37952 1.17342,1.58511 0.039,0.10249 0.21572,0.3756 0.39278,0.60691 0.41526,0.54247 1.29684,2.12677 1.57672,2.83355 0.6449,1.62856 0.69989,1.82069 0.78251,2.73422 0.0244,0.2698 0.0924,0.5746 0.15119,0.67733 0.17269,0.30194 0.13671,3.13148 -0.0457,3.59248 -0.0778,0.19673 -0.17754,0.67469 -0.22156,1.06213 -0.0857,0.75407 -0.15701,0.93451 -1.26715,3.20567 -0.42695,0.87346 -0.73618,1.38442 -1.04849,1.73245 -1.10484,1.23121 -1.9432,2.04824 -2.68663,2.61827 -0.44238,0.33921 -1.20438,0.92567 -1.69333,1.30324 -0.48895,0.37757 -1.3462,1.03588 -1.905,1.46289 -0.5588,0.42702 -1.26365,0.96849 -1.56633,1.20328 -0.30269,0.23479 -2.03624,1.57335 -3.85234,2.9746 -2.81948,2.17542 -7.1033,5.48487 -9.12283,7.04782 -0.62619,0.48461 -1.15093,0.88968 -2.56117,1.97711 -0.89054,0.68668 -1.98324,1.53289 -6.37534,4.93717 -1.08497,0.84096 -2.32322,1.79731 -2.75167,2.12523 -0.42844,0.32792 -1.17904,0.90973 -1.66799,1.2929 -1.58689,1.24363 -4.57592,3.56015 -6.18067,4.79004 -0.48895,0.37473 -1.47955,1.14153 -2.20133,1.70396 -1.7015,1.3259 -2.24874,1.74814 -3.175,2.44983 -0.4191,0.31749 -1.0668,0.8185 -1.43933,1.11336 -1.21911,0.96493 -2.24987,1.76428 -2.66414,2.06602 -0.22377,0.16299 -0.59218,0.46957 -0.81869,0.68131 -0.22651,0.21173 -0.67854,0.5596 -1.00451,0.77305 -0.32596,0.21344 -0.88222,0.6117 -1.23612,0.88502 -2.09551,1.61839 -3.28759,2.55015 -3.55414,2.778 -0.16662,0.14243 -0.70002,0.55366 -1.18533,0.91387 -0.48533,0.3602 -1.11101,0.83336 -1.39041,1.05147 -0.2794,0.21811 -1.06045,0.81749 -1.73566,1.33197 -0.67522,0.51448 -1.84338,1.41292 -2.59589,1.99653 -0.75253,0.58361 -1.91291,1.48022 -2.57864,1.99245 -0.66571,0.51223 -1.49782,1.19221 -1.8491,1.51106 -0.35129,0.31885 -0.79053,0.65757 -0.9761,0.7527 -0.18555,0.0951 -1.02992,0.71055 -1.87636,1.3676 -0.84644,0.65706 -1.96535,1.51849 -2.48647,1.91431 -0.52111,0.39581 -1.50714,1.15781 -2.19118,1.69333 -0.68403,0.53552 -1.6936,1.31657 -2.24347,1.73567 -0.54988,0.4191 -1.29425,0.9906 -1.65416,1.27 -0.35991,0.2794 -1.02723,0.79375 -1.48295,1.143 -0.89815,0.68831 -1.5366,1.18286 -2.46002,1.90551 -0.32597,0.25509 -0.99272,0.76977 -1.48167,1.14374 -0.97118,0.74279 -3.62538,2.78993 -4.66375,3.59708 -0.35943,0.2794 -1.00177,0.7747 -1.42741,1.10067 l -0.77389,0.59266 32.62137,0.044 32.62135,0.044 0.78,0.22149 c 0.99758,0.28328 1.71809,0.77815 2.28057,1.56641 0.33951,0.47578 0.43466,0.70432 0.64224,1.54267 l 0.24368,0.98414 -0.0532,9.86253 -0.0532,9.86253 -0.20474,0.84556 c -0.2705,1.11713 -0.71725,1.78918 -1.5881,2.38897 -0.5298,0.3649 -0.73423,0.4479 -1.59203,0.64636 l -0.98419,0.22771 h -18.42565 -18.42565 v 8.17034 8.17033 h 17.00919 17.00921 l 1.00536,0.24048 c 0.87725,0.20983 1.07682,0.29188 1.56619,0.64393 0.34412,0.24755 0.71569,0.6187 0.96155,0.96046 0.35116,0.48815 0.43063,0.68326 0.64291,1.57856 l 0.24223,1.02158 -0.002,9.69433 -0.002,9.69434 -0.23714,0.9861 c -0.20508,0.85277 -0.29181,1.06271 -0.64144,1.55268 -0.24417,0.34216 -0.62393,0.72784 -0.95881,0.97375 -0.48363,0.35513 -0.67451,0.43544 -1.4932,0.62822 l -0.93868,0.22103 -17.0815,-8.5e-4 -17.0815,-8.4e-4 v 10.42775 10.42775 l 18.45626,-0.0516 18.45626,-0.0516 0.97938,0.2389 c 1.25363,0.30581 1.93238,0.73873 2.54006,1.6201 0.34162,0.49546 0.43658,0.72933 0.64126,1.57932 l 0.24026,0.99774 9.3e-4,9.73666 9.3e-4,9.73667 -0.24608,1.03791 c -0.21526,0.90787 -0.2959,1.10771 -0.64363,1.595 -0.23763,0.33302 -0.62059,0.7209 -0.95205,0.96429 -0.48363,0.35513 -0.67451,0.43544 -1.4932,0.62822 l -0.93868,0.22103 -32.65859,-8.5e-4 -32.65857,-8.4e-4 -0.91706,-0.21505 c -1.15732,-0.27137 -1.79689,-0.69007 -2.44199,-1.59868 -0.37537,-0.52869 -0.45219,-0.71396 -0.6522,-1.57294 l -0.22671,-0.97367 8.5e-4,-56.532 c 8.4e-4,-40.71909 0.0267,-56.65322 0.0937,-56.96535 0.0511,-0.23834 0.0761,-0.45016 0.0555,-0.47073 -0.0206,-0.0206 -0.6815,0.46158 -1.46876,1.07143 -0.78726,0.60985 -1.71166,1.32463 -2.05423,1.5884 -0.34257,0.26376 -0.99027,0.76656 -1.43934,1.11733 -0.44906,0.35076 -2.14998,1.66446 -3.77981,2.91933 -1.62984,1.25487 -3.66819,2.82945 -4.52967,3.49906 -0.86148,0.66962 -1.84705,1.43238 -2.19016,1.695 -0.34311,0.26264 -1.01464,0.78232 -1.49231,1.15486 -0.47766,0.37253 -1.563,1.21073 -2.41186,1.86266 -0.84887,0.65194 -1.81564,1.39699 -2.14837,1.65567 -0.76429,0.59419 -2.88438,2.22555 -2.91084,2.23981 -0.0109,0.006 0.30699,0.57962 0.7065,1.27496 2.52844,4.4007 4.51759,9.59739 5.95985,15.57022 1.67153,6.92231 2.33646,11.9272 2.53435,19.07589 0.21549,7.78447 -0.47925,15.33215 -2.03581,22.11713 -1.30311,5.68024 -2.30509,8.86247 -4.05004,12.86263 -0.80745,1.85105 -2.42944,4.97889 -3.17964,6.13165 -1.49148,2.29178 -2.04881,3.10612 -2.838,4.14669 -0.48803,0.64348 -1.05159,1.38643 -1.25234,1.651 -0.20076,0.26456 -0.52461,0.65219 -0.71967,0.86139 -0.19506,0.2092 -0.49099,0.55223 -0.65762,0.76229 -0.73829,0.9307 -3.55357,3.65079 -4.86171,4.6973 -3.67953,2.94366 -6.8588,4.92065 -10.75267,6.68641 -3.28236,1.48845 -6.08341,2.41296 -10.37166,3.42326 -4.05275,0.9548 -6.94554,1.40733 -11.209,1.75345 -1.51176,0.12273 -8.58738,0.23167 -9.91534,0.15266 z m 7.493,-4.26642 c 5.81301,-0.27229 10.10013,-0.93669 15.58965,-2.41599 1.17328,-0.31617 5.21398,-1.79716 6.21201,-2.27681 0.23284,-0.1119 0.99436,-0.47671 1.69229,-0.81069 5.56865,-2.66477 10.597,-6.68284 14.48609,-11.5756 1.30146,-1.63731 2.19543,-2.89524 2.89929,-4.07961 0.15491,-0.26067 0.37388,-0.59509 0.48661,-0.74317 0.25087,-0.32955 1.11014,-1.89029 1.66598,-3.02601 0.22608,-0.46194 0.48485,-0.94353 0.57504,-1.07019 0.16085,-0.22589 0.27041,-0.47575 1.37146,-3.12757 2.42462,-5.83957 4.06655,-12.82026 4.75956,-20.23534 0.26352,-2.81956 0.31149,-3.84584 0.35818,-7.66233 0.0595,-4.86585 -0.081,-8.06766 -0.52936,-12.065 -0.97655,-8.70575 -3.35482,-16.86503 -6.81133,-23.36801 -0.28464,-0.53552 -0.55217,-1.00882 -0.59451,-1.05178 -0.0898,-0.0911 -1.48842,0.82074 -3.3043,2.1543 -0.67814,0.49802 -2.11145,1.49626 -3.18511,2.21829 -1.07368,0.72204 -2.20186,1.52465 -2.50709,1.78358 -0.67218,0.57023 -0.86687,0.67984 -1.19118,0.67061 -0.16878,-0.005 -0.30173,0.0592 -0.41073,0.19779 -0.13871,0.17635 -1.2557,1.05138 -5.76942,4.51964 -0.45899,0.35268 -1.05546,0.81269 -1.32549,1.02224 -0.27003,0.20955 -0.86126,0.66675 -1.31385,1.016 -0.45259,0.34925 -0.91319,0.7112 -1.02356,0.80433 l -0.20066,0.16933 0.42269,1.29588 c 1.2581,3.85697 2.0912,8.57432 2.47007,13.98647 0.13513,1.9305 0.13486,8.82947 -8.5e-4,10.71033 -0.78472,10.90952 -3.18662,18.56282 -7.51977,23.96067 -0.94156,1.17292 -2.43409,2.66855 -3.58614,3.59361 -3.24648,2.60684 -7.24647,4.26546 -11.938,4.95018 -1.86672,0.27245 -2.97675,0.33966 -5.588,0.33832 -2.78199,-0.001 -4.13898,-0.1015 -6.23512,-0.45985 -6.90268,-1.18007 -12.26267,-4.61833 -16.12696,-10.3449 -1.33643,-1.98048 -2.761717,-4.96121 -3.584587,-7.49653 -0.0794,-0.24447 -0.16991,-0.4445 -0.20123,-0.4445 -0.0313,0 -0.76169,0.54492 -1.62303,1.21092 -0.86134,0.666 -2.59477,2.00611 -3.85207,2.97801 -1.2573,0.9719 -2.49555,1.93138 -2.75167,2.13217 -1.4256,1.11764 -2.25212,1.75733 -3.048,2.35902 -0.48895,0.36965 -1.12307,0.86336 -1.40915,1.09715 -0.28608,0.23378 -0.78138,0.62225 -1.10066,0.86326 -0.31929,0.24101 -1.23419,0.94586 -2.03313,1.56634 -0.79893,0.62047 -1.97489,1.52818 -2.61324,2.01713 -0.63835,0.48895 -1.23923,0.95008 -1.33528,1.02474 l -0.17464,0.13574 0.18138,0.28759 c 0.0998,0.15818 0.3256,0.54934 0.50188,0.86923 0.17628,0.3199 0.44047,0.74378 0.58707,0.94196 0.1466,0.19818 0.36913,0.54405 0.49451,0.76861 0.12536,0.22456 0.40547,0.6489 0.62243,0.94298 0.21698,0.29407 0.5088,0.69808 0.6485,0.89779 0.47826,0.68371 1.83932,2.36917 2.794,3.45994 1.56614,1.78938 3.97819,4.02818 5.75733,5.3438 0.4191,0.30991 0.8763,0.65385 1.016,0.76432 0.37777,0.2987 2.66376,1.79058 3.00567,1.96155 0.16298,0.0815 0.35348,0.19581 0.42333,0.25406 0.0698,0.0582 0.5461,0.3265 1.05834,0.59614 3.28477,1.72918 5.034187,2.47751 8.127997,3.47686 5.14818,1.66293 10.62848,2.6109 16.79164,2.90456 2.05569,0.0979 5.89037,0.10206 7.88869,0.008 z m 41.13381,-89.60288 c 0.15039,-0.18122 0.89637,-0.69379 0.81818,-0.56218 -0.25992,0.4375 -0.50335,0.67207 -0.6974,0.67207 -0.16418,0 -0.19142,-0.0248 -0.12078,-0.10989 z m -2.18542,-0.20761 c 0.002,-0.0725 1.05702,-0.86783 1.15125,-0.86783 0.0992,0 -0.31942,0.42482 -0.67884,0.68881 -0.33079,0.24296 -0.47564,0.29785 -0.47241,0.17902 z m -189.083427,63.71168 0.0213,-24.4475 H 1.1536729 23.590193 v 24.42899 c 0,19.46524 0.0215,24.43719 0.10584,24.46932 0.0582,0.0222 3.94505,0.0305 8.63744,0.0185 l 8.53159,-0.0218 -0.47476,-0.37079 c -0.26112,-0.20393 -0.93803,-0.88127 -1.50427,-1.50519 -0.85245,-0.93931 -1.07896,-1.24684 -1.31708,-1.78821 -0.2744,-0.62381 -0.28993,-0.7137 -0.33867,-1.95937 -0.0281,-0.71806 -0.0284,-1.72771 -8.4e-4,-2.24367 0.0486,-0.90529 0.0652,-0.96919 0.47399,-1.8271 0.37219,-0.78104 0.51578,-0.98154 1.18233,-1.651 1.2205,-1.22583 2.94759,-2.7861 3.37912,-3.05269 0.15491,-0.0957 0.48548,-0.36241 0.7346,-0.59267 0.74879,-0.69212 2.61724,-2.23808 3.02727,-2.50479 0.11642,-0.0757 0.51647,-0.4026 0.889,-0.7264 l 0.67733,-0.58872 v -47.2367 -47.23671 l -12.0015,-0.0215 -12.0015,-0.0215 v 22.22545 22.22545 l -22.4155001,-0.0213 -22.4154999,-0.0213 -0.0133,-21.54766 c -0.007,-11.85122 -0.0168,-21.84307 -0.0212,-22.20412 l -0.008,-0.65647 -11.98774,0.0215 -11.98773,0.0215 0.002,56.59968 c 8.5e-4,31.12981 0.004,56.62837 0.007,56.66345 0.003,0.0351 5.38751,0.0541 11.96505,0.0423 l 11.95917,-0.0215 0.0213,-24.4475 z m 289.067127,23.70667 c -0.003,-0.43074 0.0144,-4.85987 0.0393,-9.8425 0.0249,-4.98264 0.018,-9.10221 -0.0153,-9.1546 -0.0445,-0.0702 -5.45557,-0.0925 -20.56374,-0.0847 -11.27682,0.006 -20.53512,-0.0211 -20.574,-0.0599 -0.0389,-0.0388 -0.0808,-6.62058 -0.093,-14.62617 l -0.0224,-14.55562 h 19.16738 19.16738 l 0.0632,-9.73702 c 0.051,-7.85817 0.0423,-9.76222 -0.0451,-9.86758 -0.0971,-0.11696 -2.09422,-0.12928 -19.20825,-0.11849 l -19.0999,0.012 -0.0214,-12.41165 -0.0214,-12.41165 20.59544,-0.0213 20.59545,-0.0213 0.0615,-9.73667 c 0.0338,-5.35517 0.0445,-9.78434 0.0238,-9.84261 -0.0301,-0.0846 -6.60504,-0.10166 -32.65813,-0.0847 l -32.62046,0.0213 -0.0202,56.55734 c -0.0111,31.10654 -0.003,56.60496 0.0185,56.66317 0.0309,0.0844 6.63572,0.10583 32.63807,0.10583 h 32.59932 l -0.006,-0.78316 z M 46.958213,676.18222 c 0.54149,-0.16999 0.68193,-0.27126 4.27567,-3.08325 1.06909,-0.83652 1.29314,-1.00972 4.10634,-3.1742 1.14088,-0.8778 2.28388,-1.76136 2.54,-1.96347 0.51564,-0.40693 4.55186,-3.51671 5.41866,-4.17492 0.30269,-0.22985 1.50284,-1.1485 2.667,-2.04145 1.16417,-0.89296 2.26907,-1.7214 2.45534,-1.841 0.18626,-0.1196 0.68564,-0.50463 1.10971,-0.85562 0.42407,-0.351 1.10987,-0.893 1.524,-1.20446 0.41413,-0.31145 1.0006,-0.75767 1.30329,-0.99162 0.30268,-0.23393 0.93133,-0.71439 1.397,-1.06768 1.17401,-0.89069 1.82577,-1.404 2.07433,-1.6337 0.11642,-0.10758 0.49742,-0.41051 0.84667,-0.67317 0.34925,-0.26266 1.03505,-0.79233 1.524,-1.17706 0.48895,-0.38471 1.51765,-1.18431 2.286,-1.77689 1.55567,-1.19978 1.64081,-1.26566 3.47978,-2.69288 1.20239,-0.93318 7.48484,-5.80258 9.85522,-7.63859 1.95643,-1.51538 3.16381,-2.44878 4.41306,-3.41163 0.69278,-0.53396 1.7549,-1.3553 2.360267,-1.82521 0.60537,-0.46991 2.03412,-1.57411 3.175,-2.45377 2.02491,-1.56128 2.40848,-1.85757 5.207,-4.02216 2.17119,-1.67937 2.90263,-2.24287 3.93043,-3.02797 0.5319,-0.4063 1.60489,-1.23403 2.38443,-1.83939 0.77952,-0.60537 1.86488,-1.44357 2.4119,-1.86267 0.54701,-0.4191 1.461,-1.12395 2.03108,-1.56633 0.57009,-0.44239 1.3093,-1.01389 1.64269,-1.27 0.33339,-0.25612 0.68957,-0.52975 0.79149,-0.60808 0.10192,-0.0783 0.71872,-0.55645 1.37065,-1.06252 0.65193,-0.50607 2.78553,-2.15381 4.74133,-3.66165 1.9558,-1.50783 4.56565,-3.52245 5.79967,-4.4769 1.23402,-0.95447 2.73897,-2.11711 3.34433,-2.58367 0.60537,-0.46655 1.42452,-1.10027 1.82034,-1.40825 0.39581,-0.30799 0.82045,-0.63392 0.94363,-0.7243 0.12318,-0.0904 0.68917,-0.52626 1.25775,-0.96864 2.81339,-2.18897 3.85161,-2.99347 4.78362,-3.70677 1.16537,-0.89191 2.06706,-1.58694 3.97933,-3.06732 0.74507,-0.57679 1.65947,-1.28217 2.032,-1.56752 0.37253,-0.28533 1.1407,-0.87788 1.70703,-1.31676 2.24674,-1.74111 5.29078,-4.07672 7.05399,-5.4123 0.93104,-0.70523 1.36559,-1.04085 3.99418,-3.08476 0.71471,-0.55574 1.79477,-1.39183 2.40014,-1.85798 0.60536,-0.46615 1.51976,-1.1759 2.032,-1.57722 0.51223,-0.40132 1.67275,-1.29878 2.57893,-1.99436 2.72244,-2.0897 2.81296,-2.15949 3.5594,-2.74403 0.39582,-0.30997 1.13877,-0.88381 1.651,-1.27519 0.51223,-0.39139 1.54093,-1.18331 2.286,-1.7598 0.74507,-0.5765 1.80588,-1.39681 2.35736,-1.82292 0.55149,-0.42611 1.44684,-1.11924 1.98967,-1.54029 0.54283,-0.42105 1.50132,-1.16193 2.12997,-1.64637 0.62865,-0.48446 1.46685,-1.13264 1.86267,-1.44041 0.39581,-0.30777 1.23401,-0.95596 1.86266,-1.44041 0.62865,-0.48445 1.58697,-1.22532 2.12959,-1.64637 0.54262,-0.42105 1.83802,-1.4224 2.87867,-2.22521 1.04064,-0.80282 2.86497,-2.21252 4.05407,-3.13267 1.18911,-0.92015 2.6338,-2.03496 3.21044,-2.47734 0.57664,-0.44239 1.43888,-1.10914 1.91609,-1.48167 0.88151,-0.68815 1.40017,-1.08869 4.56481,-3.52523 0.9779,-0.75291 1.97426,-1.52504 2.21413,-1.71585 0.23987,-0.1908 0.78786,-0.61362 1.21777,-0.93958 0.42989,-0.32597 1.2491,-0.95462 1.82046,-1.397 0.57135,-0.44239 1.41401,-1.09304 1.87256,-1.44591 0.45856,-0.35286 1.8434,-1.42216 3.07741,-2.37622 2.91651,-2.25483 6.77948,-5.23809 8.59367,-6.63661 0.79164,-0.61025 2.04894,-1.58125 2.794,-2.15777 0.74507,-0.57653 1.72911,-1.33599 2.18676,-1.68769 1.49994,-1.15273 3.24225,-2.49454 3.77114,-2.9043 0.28551,-0.2212 0.75446,-0.58315 1.04212,-0.80434 0.28767,-0.22119 0.92584,-0.71438 1.41817,-1.09598 0.49233,-0.3816 1.23477,-0.93405 1.64987,-1.22767 0.41511,-0.29361 0.94851,-0.70562 1.18534,-0.91557 0.23683,-0.20994 0.56395,-0.47549 0.72694,-0.59012 0.28733,-0.20207 0.93633,-0.70508 2.84255,-2.20316 0.50366,-0.39581 1.1515,-0.8911 1.43965,-1.10065 0.50277,-0.36565 1.3018,-0.98287 4.3538,-3.36318 1.58802,-1.23852 2.02729,-1.57796 4.02782,-3.11252 1.27269,-0.97625 2.25427,-1.73754 5.53951,-4.29634 0.48895,-0.38083 2.413,-1.87271 4.27567,-3.31531 1.86266,-1.44259 3.65864,-2.83502 3.99105,-3.09427 0.33241,-0.25927 1.17061,-0.90728 1.86267,-1.44003 0.69205,-0.53275 2.24888,-1.7355 3.45961,-2.67277 1.21073,-0.93728 2.59529,-2.00634 3.0768,-2.3757 0.88296,-0.67732 1.34913,-1.03711 3.9417,-3.04223 3.05529,-2.36299 2.88978,-2.23552 5.9355,-4.57122 0.51224,-0.39282 1.44569,-1.10897 2.07434,-1.59144 1.3125,-1.00731 2.20615,-1.96166 2.79321,-2.98291 0.45391,-0.78965 0.61202,-1.17258 0.76624,-1.85582 0.53179,-2.35596 0.53731,-2.39173 0.44101,-2.85911 -0.0508,-0.24649 -0.17191,-0.82916 -0.26914,-1.29483 -0.16834,-0.80614 -0.60072,-2.01063 -1.01818,-2.83633 -1.11368,-2.20275 -2.95691,-4.23892 -5.22734,-5.7745 -0.27031,-0.18282 -0.612,-0.44853 -0.75932,-0.59047 -0.14732,-0.14194 -0.30617,-0.23439 -0.35299,-0.20545 -0.0468,0.0289 -0.23109,-0.0855 -0.40949,-0.25431 -0.26314,-0.24901 -1.044,-0.61729 -1.044,-0.49237 0,0.0332 -0.26198,-0.12045 -0.75996,-0.4458 -0.31743,-0.20739 -0.68354,-0.25435 -2.5247,-0.32387 -1.0024,-0.0378 -1.23196,-0.024 -1.33635,0.0803 -0.12687,0.12688 -0.63964,0.30041 -0.89024,0.30129 -0.22422,7.6e-4 -1.04098,0.30633 -1.69951,0.63577 -0.70834,0.35436 -1.0595,0.61306 -2.49115,1.83523 -0.56296,0.48059 -1.22724,1.04525 -1.47618,1.2548 -0.24893,0.20955 -0.76273,0.6477 -1.14175,0.97367 -0.87116,0.74919 -2.59032,2.20581 -3.89715,3.302 -0.55515,0.46567 -1.18156,1.00189 -1.39202,1.19161 -0.21047,0.18971 -0.83986,0.72346 -1.39866,1.1861 -1.09097,0.90323 -1.38631,1.15496 -1.98589,1.69271 -0.21163,0.1898 -0.86103,0.74043 -1.44311,1.22362 -0.58209,0.48319 -1.40517,1.18515 -1.82909,1.55991 -0.83256,0.73603 -1.6676,1.45773 -1.93858,1.67547 -0.22172,0.17816 -2.258,1.91795 -3.59833,3.0744 -0.58209,0.50223 -1.25298,1.06862 -1.49086,1.25866 -0.23789,0.19003 -1.15599,0.97417 -2.04023,1.74252 -2.02666,1.76106 -3.31469,2.86603 -5.19518,4.45684 -1.3058,1.10465 -3.61018,3.0736 -6.51935,5.57036 -0.49204,0.42229 -1.10164,0.94375 -1.35466,1.15882 -1.4373,1.2216 -4.11417,3.51012 -4.19361,3.5852 -0.0511,0.0483 -0.81053,0.69738 -1.68766,1.44245 -0.87713,0.74506 -2.28637,1.94521 -3.13163,2.667 -0.84527,0.72178 -2.78794,2.37913 -4.31705,3.683 -4.53816,3.86966 -9.40262,8.02099 -13.84244,11.81312 -0.90805,0.77558 -2.4892,2.12427 -3.51367,2.99708 -1.02447,0.87281 -2.22324,1.89807 -2.66394,2.27836 -0.4407,0.38029 -1.60275,1.37251 -2.58234,2.20494 -0.97957,0.83242 -1.97155,1.67652 -2.20439,1.87578 -1.08523,0.92872 -5.66426,4.84122 -6.05366,5.17248 -0.11642,0.099 -0.40464,0.34675 -0.64049,0.55049 -0.23585,0.20372 -0.6359,0.54632 -0.889,0.76133 -0.2531,0.21501 -1.16931,0.99606 -2.03603,1.73566 -0.86672,0.73962 -2.69235,2.29726 -4.05696,3.46142 -1.36462,1.16417 -3.82063,3.25967 -5.45782,4.65667 -1.63718,1.397 -4.11632,3.51155 -5.50919,4.699 -1.39286,1.18745 -3.44741,2.94106 -4.56566,3.89689 -1.8109,1.5479 -5.26657,4.49214 -7.202,6.13611 -0.38376,0.32596 -1.14404,0.97366 -1.6895,1.43933 -0.54548,0.46567 -1.30676,1.11337 -1.69175,1.43933 -0.38498,0.32597 -1.93342,1.64543 -3.44096,2.93213 -1.50754,1.2867 -4.60788,3.9311 -6.88965,5.87644 -2.28176,1.94534 -4.43441,3.7834 -4.78366,4.08458 -0.77083,0.66473 -0.8494,0.73158 -1.86267,1.58485 -0.44238,0.37254 -0.82338,0.69783 -0.84667,0.72286 -0.0233,0.025 -0.80433,0.69179 -1.73566,1.48167 -0.93134,0.78988 -2.38196,2.02669 -3.22363,2.74847 -0.84166,0.72179 -2.38142,2.03624 -3.42168,2.921 -1.04026,0.88477 -3.11388,2.6522 -4.60804,3.92762 -1.49416,1.27542 -3.57097,3.04707 -4.61512,3.937 -1.04416,0.88993 -2.34307,1.99905 -2.88647,2.46472 -0.54341,0.46566 -1.46075,1.24898 -2.03854,1.7407 -2.13959,1.82089 -3.99774,3.4053 -6.59619,5.62448 -1.46685,1.25274 -3.1242,2.66645 -3.683,3.14155 -1.00524,0.85469 -3.90572,3.33174 -5.63641,4.81358 -0.49228,0.4215 -1.50109,1.28071 -2.24177,1.90936 -0.7407,0.62865 -1.770127,1.50495 -2.287627,1.94734 -0.5175,0.44238 -1.38955,1.18533 -1.9379,1.651 -0.54835,0.46566 -1.6879,1.43721 -2.53235,2.159 -1.44991,1.2393 -5.20295,4.44107 -9.86935,8.41971 -1.14396,0.97536 -2.57523,2.19795 -3.18059,2.71689 -0.60537,0.51894 -1.34459,1.14967 -1.6427,1.40162 -1.29677,1.09599 -2.05556,1.74213 -5.75786,4.90311 -2.15439,1.83938 -4.06417,3.46264 -4.24395,3.60724 -0.17977,0.14459 -0.56635,0.46844 -0.85905,0.71967 -0.2927,0.25121 -0.62809,0.53811 -0.74531,0.63755 -0.11722,0.0994 -0.78463,0.67155 -1.48313,1.27137 -0.6985,0.59982 -1.38855,1.18522 -1.53344,1.30088 -0.1449,0.11566 -0.92595,0.78145 -1.73567,1.47954 -0.80973,0.69808 -1.95081,1.66963 -2.53574,2.159 -0.94624,0.79163 -2.05446,1.73234 -3.33915,2.83446 -0.23284,0.19974 -1.12819,0.96169 -1.98967,1.69324 -0.86148,0.73154 -1.68063,1.43268 -1.82033,1.55809 -0.20107,0.18051 -2.21309,1.90691 -3.42901,2.94223 -0.11641,0.0991 -0.40421,0.34691 -0.63954,0.55065 -0.23534,0.20372 -0.87917,0.75141 -1.43073,1.21708 -0.55157,0.46567 -1.69452,1.43722 -2.53989,2.159 -0.84537,0.72178 -1.84442,1.57129 -2.22012,1.88779 -1.18521,0.99848 -1.55402,1.62765 -1.56864,2.67597 -0.0103,0.73664 0.17948,1.32958 0.65384,2.04312 0.76085,1.14447 1.9719,1.92769 3.25357,2.10413 0.54219,0.0747 0.90779,0.0429 1.44351,-0.12525 z m 80.433337,-20.01783 c 1.49197,-0.0918 3.60609,-0.34508 4.56668,-0.54715 1.41722,-0.29812 3.56093,-1.11265 5.21558,-1.98173 1.75905,-0.92392 2.77235,-1.69575 4.39941,-3.35107 1.65714,-1.68593 2.65947,-3.11402 3.80479,-5.42098 2.5787,-5.19415 3.79426,-11.01802 4.11749,-19.72733 0.2608,-7.0274 -0.45373,-14.7119 -1.79422,-19.29614 -0.1919,-0.65627 -0.36779,-1.25988 -0.39086,-1.34137 -0.0741,-0.26162 0.49324,-0.67306 -5.69487,4.13013 -0.81491,0.63254 -1.86266,1.44111 -2.32833,1.79683 -1.17384,0.89669 -1.64956,1.26351 -4.02167,3.10105 -1.14088,0.88377 -2.43628,1.88567 -2.87866,2.22642 -0.44239,0.34075 -1.43299,1.10686 -2.20134,1.70246 -0.76835,0.59559 -1.86676,1.44344 -2.44093,1.88409 -0.57416,0.44066 -1.43736,1.10599 -1.91822,1.47853 -0.48086,0.37253 -1.1922,0.9223 -1.58074,1.2217 -0.38854,0.2994 -0.94457,0.72803 -1.23561,0.9525 -0.29104,0.22447 -0.76729,0.59164 -1.05833,0.81593 -1.15796,0.89238 -1.78825,1.37978 -3.35946,2.59787 -0.90098,0.6985 -1.87101,1.44753 -2.1556,1.66453 -0.50002,0.38125 -1.52068,1.16752 -2.90171,2.23532 -1.42285,1.10015 -2.63138,2.0323 -3.07673,2.37311 -0.25612,0.19599 -1.13242,0.87437 -1.94733,1.50749 -0.81492,0.63312 -1.74233,1.35132 -2.06091,1.59601 -0.31858,0.24468 -0.87405,0.67347 -1.23437,0.95287 -0.36033,0.2794 -1.02912,0.79375 -1.4862,1.143 -0.45708,0.34925 -0.92961,0.71682 -1.05006,0.81683 l -0.21901,0.18182 0.28031,0.91885 c 0.96783,3.17258 2.83326,6.88211 4.50632,8.96113 0.7253,0.9013 2.4135,2.5784 3.28227,3.2607 1.67854,1.31828 3.854,2.42198 6.34106,3.21708 2.48233,0.79358 6.68933,1.16526 10.52125,0.92952 z m -70.201647,-4.32446 c 0.30982,-0.28409 0.67168,-0.57267 0.80412,-0.64129 0.13245,-0.0686 0.69998,-0.51247 1.26119,-0.98631 0.56121,-0.47385 1.27687,-1.07109 1.59035,-1.3272 0.31348,-0.25612 1.57092,-1.32292 2.7943,-2.37067 1.22339,-1.04775 2.40632,-2.0574 2.62875,-2.24367 0.22242,-0.18626 0.85011,-0.71966 1.39486,-1.18533 0.54475,-0.46567 1.06669,-0.90758 1.15987,-0.98202 0.16869,-0.13479 0.1683,-0.14035 -0.0908,-1.31234 -0.14307,-0.64733 -0.30684,-1.43415 -0.36389,-1.74847 -0.0571,-0.31433 -0.12574,-0.57033 -0.15262,-0.56889 -0.0269,10e-4 -0.17098,0.16337 -0.32023,0.35984 -0.14925,0.19647 -0.3588,0.45274 -0.46567,0.5695 -0.32552,0.35566 -1.59819,1.84658 -2.48665,2.91311 -0.46218,0.55479 -1.27846,1.53111 -1.81398,2.16959 -0.53552,0.63848 -1.44849,1.72761 -2.02883,2.42027 -0.58033,0.69268 -1.22803,1.45088 -1.43933,1.68489 -0.21129,0.23401 -0.61277,0.72815 -0.89217,1.09809 -0.2794,0.36994 -0.71977,0.90238 -0.97861,1.18319 -0.67629,0.73374 -1.29562,1.48424 -1.22483,1.48424 0.0335,0 0.3143,-0.23243 0.62412,-0.51653 z m -4.30502,-1.73056 c 0.47579,-0.52731 1.15579,-1.33591 2.87867,-3.42315 1.71259,-2.07474 2.04982,-2.47667 3.08817,-3.68061 0.55999,-0.64928 1.20866,-1.41556 1.4415,-1.70282 0.23283,-0.28728 0.85571,-1.03239 1.38419,-1.65582 0.52846,-0.62344 1.02435,-1.20971 1.10197,-1.30284 0.0776,-0.0931 0.76919,-0.90672 1.53682,-1.80797 0.76763,-0.90125 1.50998,-1.78369 1.64968,-1.96097 0.1397,-0.17728 0.52463,-0.64005 0.8554,-1.02836 l 0.60139,-0.70604 -0.11178,-1.05833 c -0.36031,-3.41123 -0.56211,-10.47642 -0.39714,-13.90356 0.0509,-1.05767 0.0438,-1.38923 -0.0281,-1.31233 -0.0529,0.0566 -1.46502,1.89359 -3.13805,4.08222 -1.67302,2.18864 -3.28709,4.2977 -3.58681,4.68681 -0.29973,0.38911 -0.92797,1.20826 -1.3961,1.82034 -0.46813,0.61207 -1.93246,2.52255 -3.25407,4.24552 -1.32161,1.72297 -2.70629,3.53103 -3.07707,4.01793 l -0.67414,0.88525 0.0544,1.18908 c 0.0299,0.65399 0.0545,4.02414 0.0547,7.48921 v 6.30014 l 0.27517,-0.3288 c 0.15134,-0.18084 0.48471,-0.56104 0.74083,-0.8449 z m 20.83858,-12.19433 c 0.57626,-0.49212 1.50496,-1.28551 2.06376,-1.76311 1.08318,-0.92576 4.37764,-3.734 7.95678,-6.78247 1.20281,-1.02447 3.27892,-2.79612 4.61358,-3.937 1.33466,-1.14088 3.27831,-2.79823 4.31924,-3.683 1.04092,-0.88477 2.28445,-1.94583 2.7634,-2.35791 0.99115,-0.85278 0.91855,-0.67443 1.00468,-2.46809 0.23906,-4.97855 1.20058,-10.34222 2.62574,-14.64734 1.595337,-4.81912 3.828607,-8.53152 6.952737,-11.5576 1.87291,-1.81414 3.42223,-2.91453 5.66251,-4.02177 1.56297,-0.77248 2.55762,-1.1622 4.09739,-1.60539 5.60991,-1.6147 13.31046,-1.61451 18.88223,8.5e-4 0.575,0.16665 0.73819,0.18641 0.84667,0.10243 0.14582,-0.11287 2.06119,-1.73914 4.11296,-3.49216 0.70853,-0.60536 1.73784,-1.48166 2.28734,-1.94733 0.54949,-0.46567 1.57426,-1.33795 2.27725,-1.93839 0.70298,-0.60045 1.60201,-1.36835 1.99782,-1.70645 0.39582,-0.3381 1.71027,-1.45922 2.921,-2.49138 3.65345,-3.11457 4.27571,-3.65518 4.27466,-3.71371 -0.002,-0.12921 -2.29731,-1.20436 -4.19537,-1.96542 -3.73358,-1.49704 -8.30721,-2.69103 -12.77929,-3.33617 -1.29248,-0.18647 -3.96627,-0.45256 -5.75733,-0.57299 -2.38223,-0.16017 -9.25325,-0.13324 -11.53239,0.0452 -5.982,0.46836 -10.7075,1.3674 -15.43395,2.93636 -3.32026,1.10217 -6.300137,2.45242 -9.008477,4.08194 -11.61729,6.98978 -18.64289,17.70004 -21.92636,33.42599 -0.69369,3.32233 -1.04016,5.96367 -1.40491,10.71034 -0.27489,3.57717 -0.29324,9.27479 -0.0389,12.08741 0.0664,0.73411 0.12068,1.67097 0.12068,2.08191 0,0.83974 0.17383,2.79126 0.42343,4.75368 0.24117,1.89614 0.69473,4.65667 0.76511,4.65667 0.0331,0 0.53177,-0.40264 1.10804,-0.89476 z m 28.818417,-24.55811 c 0.443,-0.38124 4.78623,-4.08827 8.50901,-7.26259 0.67521,-0.57573 2.19921,-1.8756 3.38666,-2.88859 1.18745,-1.01299 2.61335,-2.22711 3.16867,-2.69805 0.55531,-0.47094 1.47373,-1.2563 2.04093,-1.74525 0.56719,-0.48895 1.48095,-1.27 2.03056,-1.73567 1.12052,-0.94937 3.0011,-2.55253 4.40151,-3.75219 0.51223,-0.43881 1.02697,-0.87898 1.14387,-0.97815 2.96098,-2.51209 4.24096,-3.62905 4.20263,-3.66737 -0.0993,-0.0993 -2.77141,-0.3718 -4.41517,-0.45025 -3.61576,-0.17259 -7.56091,0.1796 -9.8721,0.88127 -1.86438,0.56603 -4.04172,1.55717 -5.5434,2.52339 -1.23875,0.79704 -3.26011,2.69588 -4.50985,4.2365 -2.2305,2.74966 -4.52045,8.17757 -5.38484,12.7638 -0.38606,2.0483 -0.8069,5.10487 -0.8087,5.87352 l -8.5e-4,0.32784 0.5715,-0.49551 c 0.31432,-0.27253 0.8001,-0.69225 1.0795,-0.9327 z m 60.40967,-22.00143 c 0,-0.10636 -0.364,0.11054 -0.71966,0.42882 l -0.42334,0.37884 0.5715,-0.3899 c 0.31433,-0.21444 0.5715,-0.40244 0.5715,-0.41776 z M 110.2584,560.99761 c 1.52943,-0.31665 4.37092,-0.74707 6.08415,-0.92161 3.19719,-0.32571 4.15844,-0.36967 8.59367,-0.39301 l 4.445,-0.0234 1.21661,-1.42474 c 0.66913,-0.7836 1.67878,-1.97308 2.24367,-2.64326 1.06596,-1.26468 1.32373,-1.56942 4.62539,-5.46835 1.09431,-1.29229 2.35161,-2.77845 2.794,-3.30259 0.44238,-0.52414 1.28058,-1.51596 1.86266,-2.20404 0.58209,-0.68809 1.51554,-1.79258 2.07434,-2.45444 0.5588,-0.66185 1.397,-1.65144 1.86266,-2.19909 0.46567,-0.54764 1.18957,-1.4034 1.60867,-1.90169 0.4191,-0.4983 1.27635,-1.51107 1.905,-2.2506 0.62865,-0.73954 1.46685,-1.73074 1.86267,-2.20268 0.39581,-0.47194 1.45955,-1.73106 2.36385,-2.79803 0.9043,-1.06699 1.8187,-2.14664 2.032,-2.39925 0.2133,-0.2526 0.85996,-1.0146 1.43703,-1.69333 1.04899,-1.2338 2.00497,-2.3652 3.43812,-4.06902 0.4191,-0.49826 1.80975,-2.13986 3.09033,-3.64801 1.28059,-1.50814 2.53789,-2.99537 2.794,-3.30496 0.25612,-0.30959 0.67783,-0.80571 0.93714,-1.10248 0.43535,-0.49824 5.33658,-6.28164 6.5982,-7.7858 0.30268,-0.36088 1.02658,-1.21733 1.60866,-1.90323 0.58209,-0.6859 1.40124,-1.65359 1.82034,-2.15041 1.08348,-1.28443 3.15686,-3.73114 4.91739,-5.80281 0.83102,-0.9779 2.67181,-3.1496 4.09065,-4.826 1.41883,-1.6764 2.60356,-3.06705 2.63273,-3.09034 0.0292,-0.0233 0.11029,-0.12623 0.18026,-0.22876 0.07,-0.10254 0.43562,-0.52164 0.81255,-0.93134 0.37695,-0.40969 0.86017,-0.9735 1.07382,-1.2529 0.21367,-0.2794 0.73266,-0.90805 1.15332,-1.397 0.42067,-0.48895 1.09601,-1.28905 1.50075,-1.778 0.40475,-0.48895 0.89489,-1.06045 1.08919,-1.27 0.19431,-0.20955 0.54355,-0.6096 0.77609,-0.889 0.23254,-0.2794 0.88815,-1.06045 1.45691,-1.73566 0.56876,-0.67522 1.1732,-1.39657 1.34322,-1.60301 0.17001,-0.20644 0.57582,-0.68815 0.90178,-1.07046 0.32597,-0.38232 0.95462,-1.12589 1.397,-1.65239 0.44239,-0.52649 0.94109,-1.11159 1.10824,-1.3002 0.16714,-0.18862 0.70278,-0.81919 1.1903,-1.40128 0.48752,-0.58208 1.20802,-1.44192 1.6011,-1.91074 0.81686,-0.97426 3.29106,-3.9124 4.48236,-5.32286 0.44239,-0.52376 1.26571,-1.50124 1.82963,-2.17218 1.10004,-1.30883 3.60857,-4.27279 4.90194,-5.79188 1.29024,-1.51542 5.29683,-6.2488 6.34665,-7.4979 0.37407,-0.44507 1.61357,-1.90785 2.75445,-3.25062 1.14089,-1.34277 2.34104,-2.75653 2.667,-3.14169 0.32597,-0.38516 1.06892,-1.26011 1.651,-1.94433 0.58209,-0.68422 1.15788,-1.3828 1.27954,-1.55241 0.28117,-0.39199 1.1758,-2.12119 1.1758,-2.27269 0,-0.0628 0.081,-0.33238 0.18003,-0.59898 0.1574,-0.42377 0.18312,-0.69762 0.20458,-2.17805 0.0271,-1.86835 0.0721,-1.63419 -0.62465,-3.25176 -0.54064,-1.25521 -1.64316,-2.81354 -2.73474,-3.86533 -1.40045,-1.34941 -2.54961,-2.15368 -4.12646,-2.88801 -0.54144,-0.25215 -1.05059,-0.49493 -1.13145,-0.53951 -0.0809,-0.0446 -0.19181,-0.0811 -0.24656,-0.0811 -0.0548,0 -0.27434,-0.10325 -0.48798,-0.22946 -0.21365,-0.1262 -0.51283,-0.23439 -0.66485,-0.24041 -0.15203,-0.006 -0.36158,-0.0893 -0.46567,-0.18506 -0.13668,-0.12573 -0.35208,-0.18825 -0.77532,-0.22505 -0.32409,-0.0282 -0.68261,-0.11423 -0.80207,-0.19249 -0.28617,-0.18751 -1.21559,-0.16433 -2.27401,0.0567 -0.43609,0.0911 -0.98475,0.1875 -1.21926,0.21432 -0.30881,0.0353 -0.47668,0.10645 -0.60882,0.25802 -0.10034,0.1151 -0.39199,0.29441 -0.64811,0.39846 -1.24456,0.50564 -2.25777,1.44525 -3.94679,3.66008 -1.51945,1.99248 -1.36752,1.79435 -3.03821,3.96189 -0.74507,0.96665 -1.7238,2.242 -2.17496,2.83411 -0.45116,0.59211 -1.27851,1.66711 -1.83854,2.38889 -1.83937,2.37063 -2.95402,3.82639 -4.34342,5.67267 -0.75343,1.00118 -1.52793,2.01083 -1.72109,2.24367 -0.19317,0.23283 -1.10978,1.42317 -2.03693,2.64519 -0.92715,1.22202 -2.30428,3.03177 -3.06029,4.02167 -0.75601,0.98989 -1.86699,2.4475 -2.46885,3.23914 -0.60186,0.79163 -1.28787,1.68698 -1.52448,1.98966 -0.2366,0.30269 -0.97919,1.27424 -1.65017,2.159 -0.67099,0.88477 -1.43989,1.89442 -1.70867,2.24367 -0.26877,0.34925 -0.7228,0.9398 -1.00896,1.31233 -0.51753,0.67373 -8.51731,11.12773 -9.81804,12.83005 -0.37488,0.49063 -1.53885,2.00891 -2.5866,3.37395 -1.04775,1.36505 -2.38125,3.10496 -2.96333,3.86646 -0.58209,0.7615 -1.46024,1.91023 -1.95146,2.55271 -0.89475,1.17029 -6.9803,9.11094 -8.81145,11.4975 -0.53595,0.6985 -3.58367,4.67995 -6.77273,8.84767 -3.18906,4.16771 -6.10443,7.97771 -6.47861,8.46666 -0.37418,0.48895 -1.81712,2.3749 -3.20654,4.191 -1.38941,1.8161 -2.76734,3.61634 -3.06204,4.00051 -0.29471,0.38418 -0.78889,1.02906 -1.09816,1.43309 -0.63259,0.82641 -4.90028,6.38883 -5.89984,7.68974 -0.3578,0.46566 -0.92661,1.20793 -1.26402,1.64948 -0.33743,0.44155 -2.00145,2.61325 -3.69783,4.826 -1.69639,2.21275 -3.31751,4.32798 -3.60249,4.70052 -0.28499,0.37253 -0.79656,1.03928 -1.13684,1.48166 -0.56433,0.73369 -6.62919,8.64615 -8.42259,10.98847 -3.67816,4.80396 -4.66033,6.08631 -4.7316,6.1777 -0.10424,0.13365 -0.14646,0.13703 0.83904,-0.067 z m 201.7065,123.77724 c -5.84982,-0.32741 -10.53463,-1.05428 -16.59467,-2.57472 -3.52312,-0.88394 -6.77814,-1.95253 -9.94833,-3.26595 -2.71357,-1.12424 -3.63784,-1.69087 -4.34213,-2.66199 -0.34123,-0.47053 -0.43026,-0.68348 -0.62733,-1.50053 l -0.22968,-0.9522 -0.004,-11.13543 -0.004,-11.13543 0.23796,-0.9719 c 0.20533,-0.83859 0.2939,-1.04942 0.64576,-1.53701 0.61541,-0.8528 1.29528,-1.28546 2.4588,-1.56474 l 0.92222,-0.22136 0.96688,0.22771 c 0.53178,0.12524 1.37244,0.39437 1.86813,0.59807 0.49569,0.20369 1.81565,0.74868 2.93325,1.21109 2.55208,1.05591 6.08502,2.42574 8.42433,3.26637 5.84484,2.10035 8.56753,2.85322 12.446,3.44154 4.19811,0.63681 9.94061,0.67699 12.83276,0.0898 1.6967,-0.34448 3.70331,-1.34958 4.7484,-2.37845 0.52855,-0.52034 0.70347,-0.76748 1.04466,-1.47596 0.58124,-1.20694 0.67924,-1.60292 0.7344,-2.96761 0.067,-1.65761 -0.0295,-2.22343 -0.56708,-3.324 -0.38845,-0.79528 -0.53789,-0.99931 -1.31743,-1.79871 -1.52037,-1.55907 -3.16011,-2.76718 -5.62237,-4.14238 -1.24935,-0.69777 -6.41699,-3.35336 -8.33967,-4.28564 -9.24128,-4.48098 -12.62951,-6.33398 -16.27736,-8.90197 -4.948,-3.48327 -7.94882,-6.38011 -10.72726,-10.35564 -2.2647,-3.24042 -3.70071,-6.17032 -4.56465,-9.31334 -0.29802,-1.08418 -0.90766,-3.84637 -1.06514,-4.826 -0.65987,-4.10478 -0.628,-8.66797 0.0896,-12.827 0.21431,-1.24207 0.91842,-4.25273 1.27719,-5.461 0.68613,-2.3108 1.50965,-4.17279 2.99812,-6.7788 1.32033,-2.31164 4.29211,-5.80904 6.59484,-7.76127 4.53611,-3.84567 9.55851,-6.38885 15.57867,-7.88853 6.07228,-1.51267 9.61786,-1.95546 15.6571,-1.95535 6.23959,0 10.49851,0.50394 16.81257,1.98889 1.63302,0.38407 2.19955,0.52921 3.683,0.94363 1.47758,0.41278 3.2642,0.97356 5.29166,1.66095 2.46247,0.83488 8.35211,3.12393 9.2984,3.6139 0.72253,0.3741 1.46331,0.99203 1.87167,1.56126 0.36581,0.50993 0.44513,0.70002 0.63782,1.52866 l 0.22006,0.94632 -0.25192,1.06036 c -0.23525,0.9902 -0.5488,1.9527 -0.75767,2.32574 -0.0494,0.0883 -0.18259,0.38917 -0.29589,0.66857 -0.11329,0.2794 -1.23245,2.96545 -2.48702,5.969 -1.25455,3.00355 -2.747,6.58642 -3.31652,7.96192 -1.17246,2.83165 -1.49427,3.36836 -2.42387,4.04254 -0.47108,0.34165 -0.68249,0.42991 -1.50053,0.62652 l -0.95219,0.22884 -0.93134,-0.21446 c -0.51899,-0.11951 -1.68105,-0.50819 -2.62466,-0.87791 -5.85762,-2.29502 -11.43649,-4.13243 -14.23336,-4.68777 -3.09272,-0.61409 -5.91885,-0.85392 -9.27941,-0.7875 -3.26612,0.0646 -3.93684,0.20292 -5.94838,1.22701 -1.55146,0.78987 -2.39944,1.72316 -3.09561,3.40706 -0.53963,1.30528 -0.53856,3.68841 0.002,4.99109 0.40364,0.97227 0.61952,1.28845 1.46407,2.14425 1.71127,1.73409 3.01819,2.57217 8.3151,5.33215 1.98451,1.03405 6.83235,3.44194 8.67833,4.31048 4.5743,2.15226 9.34302,4.81726 12.91167,7.21573 5.65125,3.79818 8.36578,6.30931 11.35452,10.50373 2.53722,3.56076 3.68259,6.0357 4.73673,10.23526 0.62009,2.47035 1.00206,4.91115 1.13433,7.24841 0.29372,5.18978 -0.15345,9.03438 -1.67409,14.39333 -0.58905,2.07588 -1.38018,3.97091 -2.59796,6.223 -0.87251,1.61357 -2.99272,4.59748 -4.1482,5.83805 -1.81126,1.94465 -3.14277,3.15877 -4.91067,4.47773 -4.46328,3.3299 -9.22738,5.53947 -15.07066,6.98971 -5.12641,1.27232 -8.19178,1.74275 -13.29267,2.04 -1.66804,0.0972 -7.05438,0.0923 -8.84767,-0.008 z m 8.46666,-4.22515 c 5.68828,-0.28876 9.85454,-0.9642 14.56267,-2.36093 4.29357,-1.27375 8.67244,-3.485 11.98034,-6.04984 2.94949,-2.28696 5.70822,-5.43716 7.36413,-8.40912 0.48028,-0.86199 1.20091,-2.31978 1.41412,-2.86073 0.0925,-0.23459 0.1996,-0.46472 0.23807,-0.51141 0.0385,-0.0467 0.15215,-0.33253 0.25264,-0.63521 0.10048,-0.30268 0.29309,-0.85513 0.42804,-1.22767 0.56283,-1.55375 1.02428,-3.58287 1.39593,-6.13833 0.23226,-1.59698 0.32475,-4.54509 0.21679,-6.90999 -0.10293,-2.25458 -0.17624,-2.92272 -0.55063,-5.018 -0.30225,-1.69157 -0.432,-2.1792 -1.08394,-4.07401 -1.85051,-5.37831 -5.72342,-10.30741 -11.24149,-14.3072 -4.2254,-3.06279 -8.7087,-5.63723 -15.748,-9.04294 -2.73443,-1.32296 -6.40847,-3.15057 -7.45067,-3.70625 -0.58208,-0.31034 -1.53458,-0.80739 -2.11666,-1.10453 -1.63487,-0.83457 -3.03279,-1.61639 -3.66617,-2.05038 -0.53779,-0.36849 -0.80975,-0.54704 -1.13501,-0.74519 -0.16264,-0.0991 -0.50329,-0.34672 -0.75699,-0.55033 -2.31466,-1.85763 -3.564,-3.23094 -4.17425,-4.58849 -0.8981,-1.99787 -1.05028,-2.70541 -1.05028,-4.88337 0,-1.2993 0.0321,-1.71639 0.18848,-2.44655 0.31341,-1.46372 1.07842,-3.20398 1.84649,-4.20046 0.55089,-0.71469 1.80722,-1.89507 2.52088,-2.36847 1.4374,-0.95347 3.0789,-1.62671 4.91451,-2.0156 1.71994,-0.36439 2.64398,-0.42444 5.73198,-0.37255 3.04847,0.0512 3.6414,0.10422 6.92569,0.61894 3.54494,0.55557 9.39918,2.36603 16.23805,5.02171 1.22414,0.47536 2.26507,0.85117 2.31317,0.83513 0.0481,-0.016 1.41349,-3.21515 3.03418,-7.10915 1.62069,-3.894 3.00864,-7.20413 3.08433,-7.35584 0.0757,-0.15171 0.13761,-0.30955 0.13761,-0.35075 0,-0.0412 0.16676,-0.44492 0.3706,-0.89716 0.54182,-1.20214 1.03568,-2.39751 1.0997,-2.66176 0.051,-0.21031 0.0201,-0.24892 -0.34735,-0.43415 -0.22181,-0.11182 -0.85464,-0.38138 -1.40629,-0.59903 -0.55165,-0.21766 -1.066,-0.43069 -1.143,-0.47341 -0.077,-0.0427 -1.18775,-0.4798 -2.46833,-0.9713 -1.28058,-0.49151 -2.51883,-0.96707 -2.75167,-1.0568 -0.64551,-0.24879 -3.84623,-1.29579 -5.03766,-1.6479 -0.58209,-0.17204 -1.36314,-0.40324 -1.73567,-0.51379 -1.89037,-0.56096 -5.75896,-1.40362 -7.91634,-1.72435 -4.22883,-0.62869 -5.58165,-0.72083 -10.62566,-0.72376 -4.99661,-0.003 -6.46556,0.1003 -10.287,0.72272 -6.31156,1.028 -12.38498,3.483 -16.68663,6.74504 -2.96572,2.24899 -5.5017,5.02373 -7.23971,7.92131 -2.24749,3.747 -3.5326,7.74191 -4.117,12.79827 -0.14795,1.28006 -0.14531,6.77733 0.004,8.128 0.44294,4.00942 1.4587,7.46563 3.05509,10.3952 1.77817,3.26313 3.24363,5.25491 5.5911,7.59909 4.12406,4.11831 8.7007,7.15657 16.85324,11.18823 9.76948,4.83129 12.68815,6.32019 14.26633,7.27771 0.4191,0.25428 0.94728,0.57486 1.17374,0.71239 2.35268,1.42886 5.04777,3.7988 6.0918,5.35686 0.88145,1.31543 1.47421,2.89612 1.67032,4.4541 0.12662,1.00592 0.0597,3.15078 -0.12178,3.90109 -0.35758,1.47875 -0.47869,1.85645 -0.87269,2.72141 -0.56942,1.25008 -0.98999,1.85633 -1.96505,2.83259 -1.05398,1.05528 -2.37733,1.92706 -3.89876,2.56835 -2.14777,0.9053 -4.27875,1.30983 -7.83491,1.48732 -2.02065,0.10085 -5.74462,-0.0659 -7.747,-0.34691 -0.34925,-0.049 -0.9017,-0.12409 -1.22767,-0.16685 -1.22605,-0.16079 -2.93608,-0.49986 -5.12233,-1.01566 -3.98305,-0.93972 -11.98838,-3.77865 -19.13467,-6.78574 -1.84213,-0.77515 -2.18113,-0.91351 -2.2382,-0.91351 -0.0263,0 -0.0478,5.00739 -0.0478,11.12752 v 11.12752 l 0.1981,0.15583 c 0.23813,0.18731 2.73675,1.28654 4.03524,1.77523 2.1041,0.7919 3.84592,1.38512 5.41866,1.84547 1.59964,0.46823 2.36236,0.6685 4.52967,1.18936 1.80336,0.4334 5.24783,1.02108 7.91633,1.35066 3.8052,0.46996 9.84203,0.67357 13.88534,0.46832 z m 57.38248,2.38331 c -0.76928,-0.18887 -0.99551,-0.28537 -1.45821,-0.62199 -0.31533,-0.22942 -0.72213,-0.63604 -0.95893,-0.95853 -0.36706,-0.49987 -0.43561,-0.66639 -0.63754,-1.54889 l -0.22627,-0.98881 10e-4,-56.55733 0.001,-56.55734 0.2335,-0.98942 c 0.20332,-0.86163 0.28514,-1.06121 0.63347,-1.54543 0.24393,-0.33908 0.61694,-0.71209 0.95602,-0.95602 0.48422,-0.34833 0.6838,-0.43015 1.54543,-0.63347 l 0.98942,-0.2335 h 11.938 11.938 l 0.98941,0.2335 c 0.86164,0.20332 1.06121,0.28514 1.54543,0.63347 0.33908,0.24393 0.7121,0.61694 0.95602,0.95602 0.34492,0.47946 0.43313,0.69227 0.64063,1.54543 l 0.24064,0.98942 -0.0499,20.04483 -0.0499,20.04483 h 18.20509 18.20501 l -8.5e-4,-20.04483 -8.4e-4,-20.04483 0.22394,-0.97367 c 0.19451,-0.84569 0.27718,-1.04967 0.62899,-1.55194 0.27611,-0.39421 0.5891,-0.7072 0.98331,-0.98331 0.50227,-0.35181 0.70625,-0.43447 1.55194,-0.62899 l 0.97367,-0.22394 11.89743,8.5e-4 11.89743,8.4e-4 0.99254,0.24212 c 1.05563,0.25751 1.43398,0.45527 2.05043,1.07171 0.61954,0.61954 0.81652,0.99684 1.06604,2.04184 l 0.23414,0.98064 0.001,56.5234 10e-4,56.52339 -0.24642,1.03717 c -0.21513,0.90556 -0.29616,1.10633 -0.63848,1.58219 -0.23673,0.32908 -0.61497,0.70586 -0.95464,0.95098 -0.48474,0.34981 -0.69702,0.43889 -1.53447,0.64394 l -0.97199,0.23796 h -11.89748 -11.89742 l -0.98881,-0.22626 c -0.88098,-0.20159 -1.04949,-0.27083 -1.54541,-0.63499 -0.31727,-0.23297 -0.73237,-0.64806 -0.96534,-0.96534 -0.36416,-0.49591 -0.4334,-0.66443 -0.63499,-1.54541 l -0.22626,-0.9888 V 656.526 634.2375 h -18.21224 -18.21314 l 0.0566,22.2885 0.0566,22.2885 -0.2392,0.98941 c -0.20667,0.8549 -0.29357,1.065 -0.63918,1.54543 -0.24392,0.33908 -0.61694,0.7121 -0.95602,0.95602 -0.48422,0.34834 -0.68379,0.43015 -1.54543,0.63348 l -0.98941,0.23349 -12.02267,-0.008 -12.02266,-0.008 -0.91054,-0.22356 z m 25.03086,-28.31172 c -0.0319,-16.82184 -0.019,-24.35965 0.0422,-24.4475 0.0781,-0.11223 2.6556,-0.1298 22.16825,-0.15108 12.14396,-0.0132 22.20368,-0.002 22.35495,0.025 l 0.27502,0.0491 0.0213,24.40135 0.0213,24.40136 11.94991,0.0215 11.94992,0.0215 0.0379,-0.1908 c 0.0208,-0.10493 0.0339,-25.60349 0.029,-56.66345 l -0.009,-56.47268 -12.0001,-0.0215 -12.0001,-0.0215 v 22.22545 22.22545 l -22.4155,-0.0213 -22.4155,-0.0213 v -22.20412 -22.20413 l -12.02266,0.0215 -12.02267,0.0215 -0.0212,56.66318 -0.0212,56.66316 h 12.06215 12.06217 z m 96.46855,28.30772 c -1.11948,-0.28083 -1.79891,-0.72469 -2.41035,-1.57466 -0.33618,-0.46731 -0.43237,-0.69632 -0.63137,-1.50309 l -0.23477,-0.9518 8.5e-4,-56.642 8.5e-4,-56.64201 0.22967,-0.95219 c 0.19746,-0.81865 0.28579,-1.02958 0.62987,-1.50402 0.23565,-0.32493 0.62712,-0.71639 0.95204,-0.95205 0.47444,-0.34407 0.68537,-0.4324 1.50402,-0.62986 l 0.9522,-0.22968 h 12.02267 12.02266 l 0.94504,0.22891 c 0.80849,0.19581 1.02568,0.28696 1.5031,0.63079 0.34067,0.24534 0.71463,0.61929 0.95997,0.95996 0.34382,0.47742 0.43497,0.69462 0.63079,1.5031 l 0.2289,0.94504 0.002,56.59968 0.002,56.59966 -0.23903,0.99265 c -0.25458,1.05712 -0.4511,1.43401 -1.07094,2.05385 -0.61645,0.61645 -0.9948,0.81421 -2.05044,1.07172 l -0.99254,0.24212 -12.02443,-0.009 -12.02443,-0.009 -0.90778,-0.22772 z m 25.08012,-60.67155 v -56.68434 h -12.065 -12.065 v 56.62789 c 0,31.14535 0.0254,56.6533 0.0564,56.68434 0.031,0.031 5.46029,0.0564 12.065,0.0564 h 12.00855 z"
       id="path521-6"
       inkscape:export-filename="logowhite.svg"
       inkscape:export-xdpi="96"
       inkscape:export-ydpi="96" /><path
       style="fill:#ffffff;stroke:#0000ff;stroke-width:0.8217;paint-order:stroke fill markers"
       d="m 417.42385,2118.4202 c 0,-0.3415 60.91711,-80.1655 135.37136,-177.3866 74.45425,-97.2211 162.09315,-211.6796 194.75313,-254.3522 32.65998,-42.6726 61.88524,-79.227 64.94507,-81.2318 10.43098,-6.8347 19.93549,-6.4156 35.29999,1.5566 18.44115,9.5685 28.36186,22.0997 28.36186,35.8251 0,5.3665 -1.0083,11.6413 -2.24065,13.944 -2.27653,4.2537 -50.03179,60.9754 -264.58278,314.2604 l -119.89924,141.5453 -10.21882,1.4007 c -5.62035,0.7703 -17.17522,1.4589 -25.67748,1.5302 -8.50226,0.071 -20.10576,0.8945 -25.78555,1.8294 -5.67979,0.9349 -10.32689,1.4204 -10.32689,1.0789 z"
       id="path866"
       transform="scale(0.26458333)" /><path
       style="fill:#ffffff;stroke:#0000ff;stroke-width:0.8217;paint-order:stroke fill markers"
       d="m 163.25607,2549.3245 c -2.73315,-2.9093 -4.58617,-7.232 -4.18362,-9.7596 0.46245,-2.9036 82.1291,-73.9403 226.8272,-197.3027 204.14911,-174.0474 320.25438,-273.111 573.89272,-489.658 45.40253,-38.763 85.72753,-71.8058 89.61103,-73.4285 13.811,-5.7706 25.3011,-1.8993 41.0216,13.8212 15.4298,15.4299 19.0372,36.8612 8.2233,48.8545 -4.0691,4.5129 -74.3405,59.0803 -364.89545,283.3499 -89.6809,69.2217 -227.62644,175.7634 -306.54563,236.7593 -242.40503,187.3528 -249.3156,192.5864 -254.29559,192.5864 -2.61213,0 -6.95713,-2.3501 -9.65556,-5.2225 z"
       id="path868"
       transform="scale(0.26458333)" /><path
       style="fill:#ffffff;stroke:#0000ff;stroke-width:0.8217;paint-order:stroke fill markers"
       d="m 439.16847,2569.4889 c -60.65261,-7.0194 -106.24506,-34.0124 -135.54676,-80.2504 l -3.49889,-5.5213 35.98683,-27.8317 c 19.79277,-15.3074 36.25934,-27.4979 36.59239,-27.0899 0.33306,0.4079 4.30068,7.8478 8.81694,16.5332 10.43139,20.061 28.60141,37.416 45.98094,43.9185 27.28933,10.2103 63.4945,10.1886 90.87106,-0.054 25.39728,-9.5023 47.90571,-38.2276 56.51321,-72.1222 10.22701,-40.272 9.2972,-102.9956 -2.0571,-138.7699 -0.91603,-2.8861 2.54211,-6.8585 13.53823,-15.5514 27.33757,-21.6115 43.54479,-31.8837 48.33068,-30.6322 2.55248,0.6675 4.48426,0.1269 4.48426,-1.255 0,-1.3352 -1.16533,-2.4276 -2.58961,-2.4276 -3.27758,0 4.96673,-6.3597 8.36546,-6.4531 1.3831,-0.038 5.64111,7.4408 9.46228,16.6196 16.38095,39.3488 23.35464,88.8756 19.54398,138.8004 -8.83202,115.711 -67.73415,181.5859 -171.92566,192.2779 -24.97979,2.5634 -39.45122,2.5196 -62.86824,-0.1904 z m 206.53404,-336.7061 c 0,-1.1958 -0.43142,-2.1741 -0.95872,-2.1741 -0.52731,0 -1.56339,0.9783 -2.3024,2.1741 -0.73902,1.1957 -0.30759,2.174 0.95873,2.174 1.26631,0 2.30239,-0.9783 2.30239,-2.174 z"
       id="path870"
       transform="scale(0.26458333)" /><path
       style="fill:#ffffff;stroke:#0000ff;stroke-width:0.8217;paint-order:stroke fill markers"
       d="m 273.22861,2401.5962 c -10.11026,-73.7623 3.64653,-149.705 35.5072,-196.0129 24.9249,-36.2271 67.25351,-60.9069 119.42358,-69.6304 29.63366,-4.9551 82.34676,-3.491 106.66491,2.9626 21.94126,5.8228 41.68556,13.403 40.87884,15.6942 -0.36207,1.0283 -14.96716,14.0706 -32.45577,28.9829 l -31.79743,27.1133 -8.42309,-1.9542 c -12.78676,-2.9666 -50.48527,-2.3843 -63.10084,0.9748 -43.60028,11.609 -69.63915,50.0576 -75.75685,111.8616 l -1.58115,15.9735 -42.38488,36.2044 c -23.3117,19.9125 -43.1209,36.4846 -44.02047,36.8271 -0.89956,0.3424 -2.22889,-3.7062 -2.95405,-8.9969 z"
       id="path872"
       transform="scale(0.26458333)" /><path
       style="fill:#ffffff;stroke:#0000ff;stroke-width:0.8217;paint-order:stroke fill markers"
       d="m 197.91065,2431.0021 -0.0691,-26.7982 26.50891,-34.5621 c 14.57991,-19.0091 26.73486,-34.3361 27.01101,-34.0599 0.27615,0.2761 0.73758,13.0573 1.02539,28.4025 l 0.5233,27.9004 -24.8167,29.5226 c -13.64919,16.2375 -26.00851,31.0685 -27.46516,32.9578 -2.12541,2.7567 -2.66212,-1.8574 -2.71761,-23.3631 z"
       id="path874"
       transform="scale(0.26458333)" /><path
       style="fill:#ffffff;stroke:#0000ff;stroke-width:0.8217;paint-order:stroke fill markers"
       d="m -169.57844,2352.3573 v -213.0601 h 44.56869 44.568696 v 83.7274 83.7274 l 85.3327397,-0.5687 85.3327393,-0.5688 0.569349,-83.1586 0.56937,-83.1587 h 43.455806 43.45582 v 177.7545 177.7544 l -12.10266,9.6574 c -20.83671,16.6268 -27.03083,24.7971 -27.03083,35.6548 0,6.4893 1.69157,11.9664 5.36968,17.3864 l 5.3697,7.9127 H 120.59605 91.311466 v -92.3985 -92.3985 H 5.7380365 -79.835393 l -1.370975,11.4139 c -0.754035,6.2777 -1.379477,47.857 -1.389871,92.3985 l -0.0189,80.9846 h -43.481651 -43.48165 z"
       id="path876"
       transform="scale(0.26458333)" /><path
       style="fill:#ffffff;stroke:#0000ff;stroke-width:0.8217;paint-order:stroke fill markers"
       d="m -432.64242,2570.6436 c -32.84304,-3.8927 -70.93317,-13.4064 -87.50683,-21.8564 l -5.97872,-3.0482 v -40.1647 c 0,-22.0906 0.43431,-40.1647 0.96515,-40.1647 0.53083,0 9.37974,3.3923 19.66424,7.5384 45.36951,18.2905 73.77038,25.0283 105.61632,25.0564 31.81002,0.028 50.38831,-8.5229 58.81292,-27.0697 8.82896,-19.4368 3.00231,-40.7145 -15.05862,-54.9909 -5.96636,-4.7161 -31.38507,-19.0841 -56.48603,-31.9287 -61.84659,-31.6482 -84.05179,-49.8016 -98.57063,-80.5841 -7.21783,-15.303 -10.59519,-31.2068 -10.59519,-49.8919 0,-56.8828 31.93785,-97.7038 89.50996,-114.4061 23.1344,-6.7115 68.40022,-8.1724 96.814,-3.1246 20.54624,3.6502 54.99122,13.9838 73.89868,22.1698 l 9.1161,3.9469 -14.17256,33.8302 -14.17254,33.8302 -31.88979,-10.7917 c -29.16614,-9.8699 -34.02629,-10.8777 -56.90491,-11.7997 -29.34804,-1.1827 -40.26508,1.1449 -51.45649,10.9711 -9.85642,8.6541 -13.77915,17.8082 -13.77915,32.1553 0,24.6944 9.55504,33.5692 68.11885,63.2696 50.76092,25.7432 69.84206,38.0132 86.86002,55.8547 22.05246,23.1197 31.77584,52.7521 29.03028,88.471 -2.27285,29.5689 -10.75971,49.0675 -30.50224,70.079 -18.14672,19.313 -41.78814,31.3537 -75.75448,38.582 -14.92875,3.1769 -61.80479,5.6993 -75.57834,4.0668 z"
       id="path878"
       transform="scale(0.26458333)" /><path
       style="fill:#ffffff;stroke:#0000ff;stroke-width:0.8217;paint-order:stroke fill markers"
       d="m 767.45113,2352.3573 v -213.0601 h 121.74863 121.74864 v 35.8724 35.8723 h -78.26699 -78.26697 v 47.8299 47.8298 h 72.83176 72.8318 v 35.8723 35.8724 h -72.8318 -72.83176 v 49.7321 c 0,27.3527 0.61146,52.7895 1.3588,56.5262 l 1.3588,6.794 h 76.90817 76.90819 v 36.9594 36.9594 H 889.19976 767.45113 Z"
       id="path880"
       transform="scale(0.26458333)" /><path
       style="fill:#ffffff;stroke:#0000ff;stroke-width:0.8217;paint-order:stroke fill markers"
       d="m 1162.8533,2569.6025 c -21.4728,-2.277 -51.1791,-9.3929 -70.3768,-16.8583 l -15.2186,-5.918 -0.5925,-40.9747 c -0.5546,-38.3558 -0.3461,-40.9015 3.2611,-39.8301 2.1195,0.6294 16.572,5.9983 32.1167,11.9306 43.7815,16.7086 54.0429,18.8888 89.1374,18.9386 30.0797,0.043 30.577,-0.036 42.3406,-6.7084 14.9997,-8.5078 21.7948,-20.0878 21.7948,-37.1418 0,-25.9975 -9.7838,-35.1931 -71.1979,-66.9173 -24.8135,-12.8177 -51.0777,-27.556 -58.3649,-32.7518 -30.9682,-22.0803 -49.3343,-50.9619 -53.0337,-83.3978 -7.4215,-65.0711 24.5946,-112.7129 88.1003,-131.0983 15.3332,-4.4391 21.7979,-4.998 56.4498,-4.8805 35.1042,0.1191 41.26,0.713 59.7873,5.7678 20.8078,5.6771 55.0902,17.5904 60.5685,21.0478 2.3487,1.4824 0.033,8.7249 -11.2849,35.2883 -7.832,18.3827 -15.0319,33.2189 -15.9998,32.9695 -0.9678,-0.2495 -11.7562,-3.9628 -23.9742,-8.2518 -30.1782,-10.5937 -47.9301,-14.044 -72.358,-14.0635 -17.1766,-0.014 -22.5128,0.8491 -31.6957,5.125 -18.1669,8.4593 -26.7262,24.4308 -23.9495,44.6892 2.8468,20.7696 13.6031,29.4331 76.5764,61.6775 50.8332,26.0283 71.0561,40.0607 85.9257,59.6227 14.7141,19.3574 19.7405,34.0218 20.9309,61.0651 1.2204,27.726 -1.8668,44.3586 -11.95,64.3811 -25.3936,50.425 -91.8555,75.3169 -176.993,66.2891 z"
       id="path882"
       transform="scale(0.26458333)" /><path
       style="fill:#ffffff;stroke:#0000ff;stroke-width:0.8217;paint-order:stroke fill markers"
       d="m 1432.7204,2352.3573 v -213.0601 h 44.5687 44.5687 v 83.7022 83.7022 h 85.8762 85.8763 v -83.7022 -83.7022 h 44.5687 44.5687 v 120.1181 c 0,66.0649 -0.65,161.9419 -1.4411,213.0601 l -1.4388,92.942 h -43.1277 -43.1276 v -92.3985 -92.3985 h -85.8763 -85.8762 v 92.3985 92.3985 h -44.5687 -44.5687 z"
       id="path884"
       transform="scale(0.26458333)" /><path
       style="fill:#ffffff;stroke:#0000ff;stroke-width:0.8217;paint-order:stroke fill markers"
       d="m 1891.4518,2352.3573 v -213.0601 h 44.5687 44.5687 v 213.0601 213.0601 h -44.5687 -44.5687 z"
       id="path886"
       transform="scale(0.26458333)" /></g></svg>
