<?xml version="1.0" encoding="UTF-8" standalone="no"?>
<!-- Created with Inkscape (http://www.inkscape.org/) -->

<svg
   width="193.62167mm"
   height="75.093864mm"
   viewBox="0 0 193.62167 75.093864"
   version="1.1"
   id="svg5"
   xml:space="preserve"
   xmlns:inkscape="http://www.inkscape.org/namespaces/inkscape"
   xmlns:sodipodi="http://sodipodi.sourceforge.net/DTD/sodipodi-0.dtd"
   xmlns="http://www.w3.org/2000/svg"
   xmlns:svg="http://www.w3.org/2000/svg"><sodipodi:namedview
     id="namedview7"
     pagecolor="#ffffff"
     bordercolor="#000000"
     borderopacity="0.25"
     inkscape:showpageshadow="2"
     inkscape:pageopacity="0.0"
     inkscape:pagecheckerboard="0"
     inkscape:deskcolor="#d1d1d1"
     inkscape:document-units="mm"
     showgrid="false" /><defs
     id="defs2" /><g
     inkscape:label="레이어 1"
     inkscape:groupmode="layer"
     id="layer1"
     transform="translate(-8.9839585,-63.791662)"><path
       style="fill:#000000;stroke-width:0.024684"
       d="m 17.217237,138.86092 c -2.592869,-0.12412 -5.142759,-0.65657 -7.184209,-1.50019 -0.7614708,-0.31467 -0.8699041,-0.36223 -0.9565051,-0.4195 l -0.092564,-0.0612 v -3.24471 c 0,-1.7846 0.00839,-3.24102 0.018641,-3.23649 0.010247,0.004 0.074114,0.0292 0.1419318,0.0549 0.2032562,0.0769 0.8761273,0.36118 1.0612973,0.44842 0.149993,0.0707 0.538611,0.22697 1.345278,0.54114 0.858066,0.33419 2.422001,0.86852 3.102075,1.05986 2.6357,0.74152 5.454207,0.80182 6.991143,0.14955 1.01967,-0.43274 1.638605,-1.12845 1.892642,-2.1274 0.09216,-0.36241 0.116958,-0.62083 0.102527,-1.06854 -0.01105,-0.3441 -0.02451,-0.45132 -0.08661,-0.69115 -0.187861,-0.7257 -0.567079,-1.24722 -1.403547,-1.93021 -0.249562,-0.20378 -0.654173,-0.4816 -1.025947,-0.70444 -0.512112,-0.30697 -1.195464,-0.66033 -3.166799,-1.63757 -2.832649,-1.40421 -3.707473,-1.90097 -4.718137,-2.67908 -1.220814,-0.93992 -1.972848,-1.7477 -2.62438,-2.81894 -0.6867962,-1.1292 -1.020824,-2.13795 -1.1908039,-3.59613 -0.043023,-0.36938 -0.042714,-1.87723 5.864e-4,-2.27092 0.1327408,-1.20893 0.3893216,-2.1496 0.8415915,-3.0855 0.818092,-1.6929 2.116372,-2.97213 3.933975,-3.87626 1.423972,-0.70833 3.068397,-1.12728 5.00379,-1.27482 0.544518,-0.0415 2.210596,-0.0408 2.776947,0.001 2.314012,0.17152 4.237393,0.63922 6.985557,1.69863 0.802118,0.30922 0.81658,0.31513 1.107154,0.45246 0.236378,0.11173 0.266487,0.13295 0.255945,0.18041 -0.0213,0.0958 -0.0964,0.29702 -0.167505,0.44873 -0.05413,0.11544 -0.93463,2.22831 -1.977644,4.74549 -0.0408,0.0984 -0.08295,0.17896 -0.09371,0.17896 -0.01074,0 -0.27908,-0.10108 -0.596281,-0.22463 -1.923659,-0.74923 -3.426831,-1.22466 -4.587877,-1.45107 -0.837573,-0.16333 -1.572212,-0.23337 -2.468394,-0.23534 -0.884663,-0.002 -1.346142,0.0588 -1.950546,0.25667 -1.452718,0.47562 -2.269934,1.59419 -2.270341,3.10756 -1.79e-4,0.63804 0.159733,1.2072 0.474818,1.69005 0.18838,0.28867 0.666722,0.76728 1.062155,1.06275 0.737009,0.55069 1.213796,0.80507 5.176992,2.76204 1.52248,0.75178 2.544865,1.34369 3.599613,2.08398 1.669646,1.17187 2.807613,2.53564 3.413918,4.09133 0.642613,1.64885 0.753904,3.9736 0.288963,6.03611 -0.02907,0.12896 -0.06166,0.25115 -0.07247,0.27151 -0.0108,0.0204 -0.05389,0.14811 -0.09575,0.28387 -0.132722,0.43024 -0.154215,0.48823 -0.276173,0.74512 -0.06566,0.1383 -0.119377,0.26371 -0.119377,0.27868 0,0.056 -0.1893,0.39108 -0.60001,1.062 -0.175516,0.28671 -0.648359,0.87344 -0.956283,1.1866 -0.09981,0.10151 -0.463207,0.44193 -0.615892,0.57695 -0.199386,0.17632 -0.814481,0.63079 -0.853739,0.63079 -0.0098,0 -0.05333,0.027 -0.09667,0.0601 -0.219737,0.16759 -1.008929,0.5866 -1.512881,0.80323 -1.514475,0.651 -3.142295,1.01545 -5.188745,1.16169 -0.490379,0.0351 -2.087145,0.0493 -2.62767,0.0234 z m 67.832249,-0.001 c -2.138112,-0.0969 -4.051383,-0.47091 -5.728559,-1.11999 -0.162913,-0.0631 -0.341367,-0.13635 -0.396562,-0.16288 -0.05518,-0.0265 -0.108983,-0.0482 -0.119526,-0.0482 -0.0221,0 -0.613447,-0.2788 -0.705764,-0.33274 -0.05506,-0.0322 -0.169214,-0.0923 -0.543049,-0.2862 -0.06111,-0.0317 -0.154401,-0.0887 -0.207349,-0.12662 -0.05296,-0.038 -0.106699,-0.069 -0.119445,-0.069 -0.04845,0 -1.020552,-0.67016 -1.28899,-0.88862 -0.09175,-0.0747 -0.20172,-0.16337 -0.244372,-0.19709 -0.249766,-0.19754 -0.94658,-0.87106 -1.180273,-1.14081 -0.07032,-0.0812 -0.160135,-0.18269 -0.19959,-0.22559 -0.130167,-0.14154 -0.534457,-0.65587 -0.721757,-0.91822 -0.04074,-0.057 -0.127655,-0.17417 -0.193164,-0.26026 -0.06551,-0.0861 -0.133605,-0.19028 -0.151326,-0.23152 -0.01772,-0.0412 -0.06952,-0.12497 -0.115112,-0.18606 -0.04555,-0.0611 -0.11215,-0.16817 -0.147913,-0.23794 -0.0358,-0.0698 -0.107576,-0.19095 -0.159567,-0.26928 l -0.09453,-0.14243 0.0592,-0.0393 c 0.03253,-0.0216 0.165319,-0.12291 0.295048,-0.22514 0.129735,-0.10223 0.352509,-0.27532 0.495058,-0.38464 0.142549,-0.10933 0.448016,-0.34524 0.678808,-0.52425 0.230798,-0.17901 0.523334,-0.4058 0.650075,-0.50398 0.126754,-0.0982 0.3378,-0.2623 0.468998,-0.36472 0.131203,-0.10241 0.355181,-0.27545 0.49773,-0.38453 0.142549,-0.10907 0.472083,-0.36407 0.732306,-0.56665 0.260223,-0.20257 0.549024,-0.42669 0.641786,-0.49802 0.09276,-0.0713 0.363045,-0.28092 0.600626,-0.46575 0.534229,-0.41559 0.693302,-0.53445 0.700888,-0.5237 0.0031,0.004 0.05932,0.15832 0.124612,0.34161 0.448739,1.25965 1.044384,2.23743 1.86505,3.06154 1.032071,1.03641 2.18008,1.62419 3.731089,1.91032 1.018306,0.18786 2.360497,0.21173 3.451948,0.0614 2.223342,-0.30627 3.862663,-1.31566 5.037288,-3.10166 0.971875,-1.47772 1.568175,-3.64309 1.755469,-6.37471 0.04012,-0.58536 0.03994,-2.58356 -2.9e-4,-3.15955 -0.108797,-1.5564 -0.35807,-2.96219 -0.727504,-4.10272 l -0.109618,-0.33841 0.163387,-0.1238 c 0.08986,-0.0681 0.379989,-0.29153 0.644724,-0.49653 0.264735,-0.205 0.542426,-0.41976 0.617095,-0.47724 0.07467,-0.0575 0.263501,-0.20323 0.419629,-0.32389 0.156123,-0.12065 0.416148,-0.31993 0.577832,-0.44284 0.161678,-0.12291 0.327281,-0.25664 0.367996,-0.29717 0.04777,-0.0476 0.09404,-0.0711 0.130487,-0.0663 0.07702,0.0101 0.134309,-0.0235 0.392384,-0.22966 0.122186,-0.0976 0.444313,-0.3258 0.715831,-0.50702 0.271525,-0.18124 0.638082,-0.43631 0.814574,-0.56684 0.176492,-0.13053 0.480447,-0.3455 0.675469,-0.47769 0.328559,-0.22271 0.357027,-0.23711 0.387964,-0.1963 0.07113,0.0938 0.552893,1.07539 0.708663,1.44385 0.88047,2.08264 1.35745,4.23003 1.55322,6.99274 0.0421,0.59413 0.0422,2.95815 2.5e-4,3.55449 -0.19679,2.79074 -0.69637,5.00017 -1.60462,7.09664 -0.0676,0.15612 -0.13102,0.31163 -0.14084,0.34558 -0.01,0.034 -0.0493,0.11169 -0.0877,0.17279 -0.03839,0.0611 -0.111375,0.19993 -0.162144,0.30854 -0.05074,0.10861 -0.111291,0.22524 -0.134512,0.25918 -0.02321,0.034 -0.103829,0.18141 -0.17914,0.32772 -0.07531,0.1463 -0.16611,0.30069 -0.201781,0.34308 -0.03568,0.0424 -0.0966,0.13996 -0.135395,0.21681 -0.03876,0.0769 -0.08869,0.1548 -0.11089,0.17322 -0.02216,0.0184 -0.08503,0.11 -0.139642,0.2035 -0.05463,0.0935 -0.147376,0.22904 -0.206145,0.30119 -0.05876,0.0722 -0.134222,0.17431 -0.167659,0.227 -0.03346,0.0527 -0.08813,0.12357 -0.121544,0.15752 -0.03339,0.034 -0.105594,0.1228 -0.160419,0.19747 -0.357508,0.48692 -1.224425,1.35394 -1.834138,1.83438 -0.88957,0.70098 -1.622444,1.14501 -2.789286,1.69 -0.228206,0.10658 -0.862479,0.35052 -1.296126,0.49848 -2.031988,0.69331 -4.640807,1.00919 -7.329048,0.88743 z m 14.413348,-26.20156 c 0.05068,-0.0618 0.0881,-0.11646 0.08317,-0.12138 -0.01253,-0.0126 -0.290993,0.19271 -0.291974,0.21529 -5.86e-4,0.0102 0.02562,0.0185 0.05796,0.0185 0.03975,0 0.08848,-0.0363 0.15087,-0.11243 z m -0.732911,0.003 c 0.03666,-0.0193 0.116637,-0.0875 0.177733,-0.15166 0.06111,-0.0641 0.09441,-0.10774 0.07405,-0.0969 -0.05586,0.0298 -0.370261,0.2621 -0.370261,0.27358 0,0.0204 0.05376,0.009 0.118476,-0.0251 z m 42.337947,26.20995 c -1.95659,-0.10835 -2.66641,-0.1986 -4.28266,-0.54452 -0.54578,-0.11681 -1.53357,-0.39683 -2.12282,-0.60179 -0.81484,-0.28341 -1.78169,-0.67784 -1.94277,-0.79253 l -0.069,-0.0491 v -3.24426 c 0,-1.78434 0.004,-3.24426 0.009,-3.24426 0.0111,0 0.44328,0.176 1.16386,0.4739 1.39702,0.57756 3.37924,1.29987 4.29501,1.56507 1.5402,0.44604 2.95754,0.65915 4.39374,0.66064 1.31465,0.001 2.19795,-0.15573 2.96208,-0.52678 0.47353,-0.22993 0.85233,-0.51025 1.13045,-0.83653 0.11516,-0.13509 0.36293,-0.52049 0.36293,-0.56451 0,-0.0134 0.0331,-0.0898 0.0736,-0.16973 0.0405,-0.08 0.0864,-0.20094 0.10209,-0.26883 0.0157,-0.0679 0.0488,-0.19561 0.0736,-0.28386 0.0766,-0.27205 0.10362,-0.57627 0.0888,-0.99971 -0.0228,-0.65078 -0.16769,-1.10497 -0.51962,-1.62914 -0.13281,-0.19779 -0.58697,-0.66174 -0.89226,-0.91147 -0.74981,-0.61334 -1.29146,-0.92326 -3.76431,-2.15378 -2.31655,-1.15275 -2.30595,-1.14742 -2.67821,-1.34807 -1.73648,-0.93599 -2.66096,-1.58036 -3.76122,-2.6216 -0.61687,-0.58378 -1.2835,-1.48642 -1.70569,-2.30953 -0.0727,-0.14169 -0.1522,-0.28538 -0.17672,-0.31932 -0.0245,-0.0339 -0.0718,-0.13946 -0.10514,-0.2345 -0.0333,-0.095 -0.11159,-0.31576 -0.17398,-0.49051 -0.20241,-0.56701 -0.33391,-1.1495 -0.42144,-1.86681 -0.0626,-0.51329 -0.0769,-1.70232 -0.0273,-2.27116 0.0752,-0.8624 0.23045,-1.62589 0.4742,-2.3324 0.0749,-0.21722 0.14498,-0.42826 0.15565,-0.46899 0.0107,-0.0407 0.0475,-0.12959 0.0817,-0.19747 0.0343,-0.0679 0.12545,-0.25017 0.20259,-0.4051 0.0771,-0.15492 0.16064,-0.31043 0.18558,-0.34558 0.0249,-0.0351 0.0871,-0.14165 0.13807,-0.23668 0.051,-0.095 0.12171,-0.20641 0.15714,-0.24751 0.0354,-0.0411 0.10885,-0.14107 0.16315,-0.22216 0.0543,-0.0811 0.11118,-0.15854 0.12639,-0.17212 0.0153,-0.0136 0.0954,-0.11354 0.17818,-0.22215 0.24662,-0.32355 0.83636,-0.90573 1.23771,-1.22186 0.11204,-0.0882 0.23851,-0.18891 0.28105,-0.2237 0.11122,-0.091 0.68475,-0.46368 0.91659,-0.59565 1.18112,-0.67232 2.8386,-1.20424 4.33787,-1.39213 0.1665,-0.0209 0.4249,-0.0534 0.57424,-0.0724 0.7458,-0.0945 2.74718,-0.10808 3.7026,-0.0251 0.68271,0.0593 1.72477,0.20681 2.19213,0.31025 0.68316,0.1512 1.26362,0.29223 1.53515,0.37301 0.55017,0.16367 0.97515,0.29461 1.11077,0.34226 0.21425,0.0753 0.4403,0.14986 0.55861,0.18434 0.0629,0.0183 0.14618,0.0497 0.18513,0.0697 0.0389,0.02 0.14304,0.0589 0.23128,0.0864 0.0882,0.0275 0.4437,0.16348 0.78989,0.30211 0.34619,0.13863 0.76273,0.30435 0.92565,0.36825 0.35864,0.14067 0.45462,0.18918 0.47393,0.23949 0.0185,0.0483 -0.0479,0.26197 -0.12861,0.41377 -0.0338,0.0636 -0.0615,0.12978 -0.0615,0.14713 0,0.0173 -0.0284,0.0862 -0.0632,0.15296 -0.0348,0.0668 -0.0946,0.19919 -0.13311,0.29422 -0.0384,0.095 -0.24158,0.58377 -0.45135,1.0861 -0.20976,0.50231 -0.60654,1.45481 -0.88172,2.11665 -0.27519,0.66183 -0.51132,1.20334 -0.52474,1.20334 -0.0134,0 -0.24821,-0.0881 -0.52174,-0.19582 -1.67382,-0.65904 -3.21801,-1.16483 -4.25647,-1.39418 -0.59293,-0.13096 -1.1167,-0.21315 -1.74539,-0.27389 -0.51378,-0.0496 -1.74155,-0.0491 -2.12773,6.2e-4 -1.66309,0.2155 -2.77289,1.08648 -3.11385,2.44375 -0.16645,0.6626 -0.11895,1.54279 0.1093,2.02528 0.0328,0.0694 0.0598,0.14283 0.0598,0.16311 0,0.0203 0.053,0.12473 0.11769,0.23211 0.3044,0.50498 0.81157,0.98532 1.56082,1.47822 0.65776,0.43271 0.9936,0.60714 4.89977,2.54491 1.49326,0.74078 2.81145,1.52907 3.82602,2.28801 1.50561,1.12626 2.57857,2.50638 3.11997,4.01316 0.18981,0.52828 0.24785,0.74179 0.33651,1.23791 0.11129,0.62277 0.13451,0.83594 0.16081,1.47675 0.0554,1.35118 -0.0493,2.33508 -0.36852,3.46004 -0.0931,0.32806 -0.2668,0.82926 -0.31122,0.8979 -0.0186,0.0288 -0.0585,0.11908 -0.0884,0.20054 -0.0299,0.0814 -0.0744,0.17651 -0.0987,0.21123 -0.0243,0.0347 -0.0651,0.11802 -0.0906,0.18512 -0.0255,0.0671 -0.0818,0.17088 -0.12513,0.23062 -0.0433,0.0597 -0.0787,0.12187 -0.0787,0.13808 0,0.0522 -0.4395,0.71093 -0.64045,0.95988 -0.0754,0.0934 -0.16534,0.20617 -0.19986,0.25057 -0.0666,0.0856 -0.2607,0.29324 -0.50496,0.5401 -0.43458,0.43923 -0.97089,0.86214 -1.57513,1.24209 -0.28343,0.17822 -1.14464,0.62721 -1.49802,0.78099 -0.63236,0.27517 -1.61996,0.57551 -2.53011,0.76942 -0.10861,0.0231 -0.26017,0.0573 -0.33679,0.0761 -0.0766,0.0187 -0.16805,0.0339 -0.20314,0.0339 -0.0351,0 -0.15014,0.0158 -0.25563,0.0351 -0.251,0.0459 -0.71186,0.10709 -0.94466,0.12549 -0.10182,0.008 -0.39063,0.0312 -0.64178,0.0514 -0.42737,0.0344 -2.24232,0.0655 -2.61651,0.0447 z M 36.529065,138.37386 c -0.0012,-0.0103 -0.0012,-7.44416 0,-16.51983 l 0.0025,-16.50124 3.492668,-0.006 3.492668,-0.006 v 6.47962 6.47963 h 6.541207 6.541202 l 0.0062,-6.47337 0.0062,-6.47337 h 3.492779 3.492785 v 13.77087 13.77086 l -0.209812,0.17558 c -0.115402,0.0966 -0.254247,0.20853 -0.308553,0.24882 -0.05432,0.0403 -0.197109,0.15692 -0.317338,0.25918 -0.120241,0.10227 -0.247976,0.20718 -0.28387,0.23314 -0.03586,0.026 -0.126352,0.10504 -0.201021,0.17573 -0.07467,0.0707 -0.176332,0.15527 -0.225922,0.18794 -0.04957,0.0327 -0.165011,0.12576 -0.256501,0.20686 -0.09149,0.0811 -0.234193,0.20736 -0.317121,0.28055 -0.368026,0.32483 -0.625873,0.6086 -0.716467,0.7885 -0.1689,0.33538 -0.182035,0.38684 -0.193621,0.75858 -0.0179,0.57388 0.0084,0.85675 0.100878,1.08585 0.06781,0.16796 0.11789,0.23913 0.349429,0.49656 0.148653,0.16527 0.348755,0.36804 0.444677,0.4506 l 0.174405,0.15011 -2.512366,-0.006 -2.512244,-0.006 -0.0062,-7.1275 -0.0062,-7.1275 h -6.541164 -6.541171 l -0.0062,7.1275 -0.0062,7.1275 -3.486607,0.006 c -1.91764,0.004 -3.487606,-0.002 -3.488822,-0.0123 z m 72.248895,0.007 c -0.006,-0.006 -0.008,-7.4291 -0.004,-16.49506 0.004,-9.06596 0.008,-16.49744 0.007,-16.51441 -2.9e-4,-0.0246 1.91625,-0.0309 9.50276,-0.0309 h 9.50332 v 2.86329 2.86329 l -6.00437,0.006 -6.00438,0.006 v 3.62854 3.62855 l 5.58475,0.006 5.58475,0.006 v 2.86328 2.86329 h -5.59126 -5.59127 l 0.006,4.24359 c 0.004,2.33397 0.0158,4.25284 0.0271,4.26416 0.0113,0.0113 2.71606,0.0261 6.01055,0.0329 l 5.98998,0.0123 -2.5e-4,0.82074 c 0,0.45141 -0.003,1.74824 -0.006,2.88185 l -0.006,2.06111 h -9.4992 c -5.22457,0 -9.50439,-0.005 -9.51072,-0.0115 z m 51.37678,-16.50815 0.006,-16.51983 3.50512,-0.006 3.50512,-0.006 v 6.47346 6.47345 l 6.53503,0.006 6.53504,0.006 0.006,-6.47341 0.006,-6.47342 h 3.49233 3.49232 l 5.9e-4,16.48644 c 2.9e-4,10.95289 -0.008,16.49769 -0.0242,16.51993 -0.0206,0.028 -0.59614,0.0325 -3.49277,0.0272 l -3.46811,-0.006 -0.006,-7.11405 -0.006,-7.11404 -0.0802,-0.0143 c -0.0441,-0.008 -2.97694,-0.0111 -6.51743,-0.007 -5.68879,0.006 -6.44023,0.0113 -6.46297,0.0441 -0.0178,0.0256 -0.0232,2.2344 -0.0176,7.12133 l 0.008,7.08429 -3.51131,0.006 -3.51132,0.006 0.006,-16.51982 z m 35.43387,16.48889 c -0.006,-0.017 -0.006,-7.45095 -6.2e-4,-16.51984 l 0.01,-16.48888 3.50382,-0.006 3.50381,-0.006 -0.006,16.51984 -0.006,16.51982 -3.49686,0.006 c -2.78511,0.005 -3.49897,0 -3.50719,-0.0247 z M 62.766448,137.56389 c -0.328572,-0.10581 -0.648193,-0.38378 -0.805717,-0.70074 -0.08722,-0.17549 -0.09135,-0.19513 -0.09108,-0.43197 5.8e-4,-0.41164 0.02938,-0.44982 0.899058,-1.1862 1.160681,-0.98281 1.600211,-1.35691 2.494028,-2.12273 1.253832,-1.07428 1.966874,-1.68293 2.298932,-1.96238 0.153271,-0.12897 0.473954,-0.40111 0.712641,-0.60475 0.238686,-0.20365 0.571974,-0.4869 0.740639,-0.62944 0.168665,-0.14255 0.396043,-0.33711 0.505291,-0.43235 0.109242,-0.0952 0.265272,-0.22853 0.346732,-0.29621 0.08145,-0.0677 0.236964,-0.19954 0.345576,-0.29303 0.25655,-0.22084 0.256149,-0.2205 0.701518,-0.59556 0.209342,-0.1763 0.432103,-0.36498 0.495027,-0.41928 0.06292,-0.0543 0.179714,-0.15428 0.259537,-0.22216 0.07982,-0.0679 0.229169,-0.196 0.331886,-0.28471 0.102711,-0.0887 0.486657,-0.4158 0.853214,-0.72686 0.366558,-0.31107 0.810871,-0.68898 0.987363,-0.83979 0.176485,-0.15082 0.626088,-0.53463 0.999114,-0.85291 0.373027,-0.31829 0.95142,-0.81196 1.285324,-1.09706 0.333905,-0.2851 0.894367,-0.76274 1.245474,-1.06141 0.351114,-0.29868 0.916823,-0.78067 1.257128,-1.0711 0.340312,-0.29042 0.67887,-0.57923 0.752361,-0.64178 0.07349,-0.0625 0.251211,-0.21436 0.394945,-0.33735 0.143728,-0.123 0.533469,-0.45555 0.866084,-0.739 1.037026,-0.88378 1.382949,-1.17904 1.5906,-1.35768 0.183121,-0.15753 0.300622,-0.25774 0.593294,-0.50602 0.277006,-0.23498 0.413641,-0.35155 0.653124,-0.55724 0.143451,-0.12319 0.682914,-0.5835 1.19881,-1.02291 0.830252,-0.70715 1.685466,-1.43644 1.863637,-1.58923 0.03395,-0.0291 0.294974,-0.25124 0.580078,-0.49365 0.285098,-0.2424 0.551685,-0.46993 0.592412,-0.50562 0.04074,-0.0357 0.179041,-0.15369 0.307362,-0.26224 0.128321,-0.10854 0.251328,-0.21401 0.273346,-0.23438 0.02204,-0.0204 0.249538,-0.21474 0.505606,-0.43197 0.256063,-0.21722 0.706314,-0.60043 1.000553,-0.8516 0.29424,-0.25115 0.782718,-0.66769 1.085506,-0.92565 0.302789,-0.25794 0.640928,-0.54674 0.751423,-0.64177 0.110495,-0.095 0.449387,-0.38385 0.753089,-0.64179 0.303702,-0.25795 0.64247,-0.54675 0.752817,-0.64179 0.110347,-0.095 0.487737,-0.41716 0.838653,-0.71583 0.35091,-0.29867 0.956512,-0.81519 1.345778,-1.1478 0.389267,-0.33262 0.956216,-0.81581 1.259887,-1.07376 0.303678,-0.25794 0.642705,-0.54674 0.753386,-0.64178 0.110686,-0.095 0.293671,-0.25054 0.406629,-0.34557 0.112958,-0.095 0.300789,-0.25463 0.417407,-0.35465 0.116618,-0.10002 0.267574,-0.22897 0.335454,-0.28656 0.06788,-0.0576 0.206725,-0.17674 0.308548,-0.26478 0.101822,-0.088 0.457954,-0.39229 0.791414,-0.67611 1.489214,-1.26756 3.118074,-2.65564 3.356144,-2.86006 0.1429,-0.12271 0.39283,-0.33633 0.55539,-0.4747 0.81336,-0.692389 1.24628,-1.061469 1.36931,-1.167439 0.0747,-0.0643 0.34126,-0.29249 0.59241,-0.50704 0.25116,-0.21457 0.51775,-0.44251 0.59242,-0.50655 0.0747,-0.0641 0.53008,-0.45315 1.01204,-0.86467 0.48196,-0.41153 1.14842,-0.98083 1.48104,-1.26513 0.33262,-0.2843 0.6603,-0.56412 0.72818,-0.62183 0.0679,-0.0577 0.55754,-0.4755 1.08814,-0.92843 0.5306,-0.45293 1.40747,-1.20118 1.94859,-1.66277 1.13373,-0.9671 1.98722,-1.69532 2.68994,-2.29512 0.27153,-0.23174 0.83191,-0.70988 1.24528,-1.06253 0.41338,-0.35264 0.87991,-0.75096 1.03673,-0.88518 0.15682,-0.13421 0.3455,-0.29527 0.41929,-0.35792 0.0738,-0.0626 0.18542,-0.15832 0.24807,-0.21263 0.0626,-0.0543 0.17365,-0.14871 0.24666,-0.20981 0.073,-0.0611 0.25019,-0.21183 0.39372,-0.33498 1.64488,-1.41132 2.51972,-2.15998 2.60344,-2.22791 0.11723,-0.0951 0.26945,-0.2247 0.6285,-0.53495 0.14141,-0.12218 0.29722,-0.25509 0.34625,-0.29536 0.049,-0.0402 0.17873,-0.15133 0.28821,-0.24684 0.10948,-0.0955 0.27054,-0.23601 0.35792,-0.31225 0.18285,-0.15955 0.44003,-0.37671 0.55131,-0.46554 0.0421,-0.0336 0.20984,-0.17648 0.37275,-0.3175 0.16291,-0.14101 0.36169,-0.31308 0.44172,-0.38237 0.08,-0.0693 0.15778,-0.13755 0.17278,-0.1517 0.015,-0.0141 0.1217,-0.10282 0.2371,-0.19704 0.11539,-0.0942 0.26612,-0.22187 0.33494,-0.28366 0.19971,-0.17932 0.58944,-0.51427 0.93628,-0.80469 0.17649,-0.14777 0.44982,-0.38013 0.60739,-0.51634 0.15757,-0.13622 0.40194,-0.34423 0.54304,-0.46226 0.14111,-0.11802 0.28988,-0.24402 0.33061,-0.27999 0.0786,-0.0694 0.34145,-0.29249 1.06141,-0.90077 0.24437,-0.20647 0.47769,-0.40463 0.51848,-0.44035 0.35876,-0.3142 0.95774,-0.81916 1.09251,-0.92106 0.22402,-0.16935 0.56522,-0.32865 0.83891,-0.39166 0.12396,-0.0285 0.23724,-0.0662 0.25174,-0.0837 0.02,-0.0241 0.11412,-0.0294 0.39024,-0.0222 0.20013,0.006 0.41386,0.0167 0.47496,0.0254 0.0611,0.009 0.12218,0.0174 0.13576,0.0193 0.0505,0.007 0.15622,0.0603 0.17278,0.0871 0.009,0.0153 0.0466,0.04 0.0826,0.055 0.0761,0.0317 0.0657,0.0285 0.17656,0.0543 0.0475,0.0111 0.13316,0.0631 0.19032,0.11546 0.0588,0.0539 0.11913,0.0895 0.13896,0.0819 0.0198,-0.008 0.0565,0.0139 0.0844,0.0493 0.0272,0.0345 0.13125,0.11816 0.2313,0.18588 0.54079,0.36595 0.94924,0.77182 1.28902,1.28088 0.24618,0.36882 0.47695,0.90956 0.5444,1.27563 0.0225,0.12189 0.0528,0.27767 0.0675,0.34615 0.0216,0.10079 0.0188,0.15489 -0.0145,0.28386 -0.0226,0.0876 -0.0568,0.2486 -0.076,0.35768 -0.0423,0.24053 -0.105,0.44675 -0.16113,0.52984 -0.0229,0.034 -0.0668,0.11135 -0.0975,0.17202 -0.0543,0.10726 -0.21939,0.32331 -0.41153,0.5386 -0.052,0.0582 -0.23331,0.2115 -0.40302,0.34061 -0.39543,0.30088 -0.67897,0.51815 -1.05033,0.80489 -0.16362,0.12632 -0.47852,0.36853 -0.6998,0.53823 -0.22128,0.1697 -0.51661,0.39741 -0.65629,0.50602 -0.13968,0.10861 -0.519,0.40229 -0.84295,0.65261 -0.32394,0.25033 -0.8278,0.63981 -1.11969,0.8655 -0.29188,0.2257 -0.83061,0.64205 -1.19717,0.92522 -1.12482,0.86897 -1.25445,0.96924 -2.19687,1.69932 -0.50232,0.38915 -1.14658,0.89004 -1.43167,1.11311 -0.2851,0.22307 -0.69106,0.53691 -0.90212,0.69743 -0.34015,0.2587 -0.7986,0.61397 -1.4437,1.11877 -0.11277,0.0882 -0.2809,0.21879 -0.37362,0.2901 -0.0927,0.0713 -0.3352,0.2578 -0.53885,0.41441 -0.20364,0.15661 -0.47578,0.36549 -0.60475,0.46418 -0.25091,0.19198 -0.61066,0.47309 -0.8516,0.66545 -0.0815,0.065 -0.27585,0.2126 -0.43197,0.32794 -0.35154,0.25971 -0.35691,0.2638 -0.74156,0.5655 -0.17309,0.13576 -0.51118,0.39679 -0.75131,0.58007 -0.24014,0.18327 -0.73837,0.56691 -1.10718,0.85251 -0.36882,0.28562 -1.15932,0.89608 -1.75667,1.3566 -0.59735,0.46052 -1.21383,0.93596 -1.36996,1.05654 -0.15613,0.12058 -0.38752,0.29877 -0.51422,0.39597 -0.12669,0.0972 -0.39423,0.30447 -0.59453,0.4606 -0.2003,0.15613 -0.49492,0.38384 -0.65473,0.506019 -0.29179,0.22311 -0.85774,0.65971 -1.88975,1.45782 -0.30547,0.23624 -0.83864,0.64823 -1.18483,0.91555 -0.89325,0.68973 -1.16576,0.90038 -1.86364,1.44058 -0.33941,0.26271 -0.72658,0.56174 -0.86041,0.66449 -0.13382,0.10276 -0.37263,0.28727 -0.5307,0.41003 -0.15807,0.12275 -0.4318,0.33462 -0.60829,0.47081 -0.17649,0.13619 -0.6208,0.47938 -0.98736,0.76265 -0.36656,0.28326 -0.74977,0.57919 -0.8516,0.65761 -0.10182,0.0784 -0.35402,0.27349 -0.56045,0.43349 -0.46995,0.36424 -0.8582,0.66379 -1.19211,0.91974 -0.14255,0.10927 -0.40913,0.31513 -0.59242,0.45746 -0.48046,0.37312 -0.92047,0.71297 -1.198143,0.92544 -0.260358,0.19922 -0.558826,0.42987 -0.776569,0.60012 -0.07467,0.0584 -0.285716,0.22165 -0.468991,0.3628 -0.183282,0.14115 -0.461923,0.35713 -0.619206,0.47994 -0.273753,0.21377 -0.601269,0.46742 -1.108672,0.85864 -0.128976,0.0994 -0.445548,0.34082 -0.703493,0.53641 -0.257951,0.19557 -0.547987,0.41738 -0.644538,0.49289 -0.09654,0.0755 -0.290925,0.2257 -0.431968,0.33374 -0.285715,0.21888 -0.654458,0.50306 -1.012028,0.77998 -0.130482,0.10105 -0.273839,0.2115 -0.318578,0.24544 -0.04475,0.034 -0.195306,0.15057 -0.334602,0.25918 -0.139296,0.10861 -0.405315,0.31411 -0.591146,0.45665 -0.40924,0.31393 -1.470982,1.13414 -1.866976,1.44228 -0.158246,0.12314 -0.413728,0.32113 -0.567727,0.43996 -0.154006,0.11884 -0.8354,0.6449 -1.514209,1.16901 -0.678808,0.52412 -1.438181,1.11001 -1.687497,1.30199 -0.24931,0.19198 -0.582541,0.44858 -0.740516,0.57021 -0.157974,0.12163 -0.415968,0.32157 -0.573325,0.44431 -0.157351,0.12274 -0.322813,0.25093 -0.367699,0.28487 -0.04487,0.0339 -0.167709,0.12836 -0.272951,0.20982 -0.105248,0.0815 -0.273018,0.21091 -0.372822,0.28769 -0.320264,0.24636 -1.545683,1.19202 -2.143841,1.65442 -0.319041,0.24663 -0.685592,0.52976 -0.814568,0.62919 -0.128975,0.0994 -0.501088,0.38704 -0.826912,0.63914 -0.325831,0.25211 -0.742374,0.57411 -0.92565,0.71557 -0.781921,0.60351 -2.42721,1.8743 -3.479316,2.68737 -0.156746,0.12113 -0.423839,0.3281 -0.593541,0.45992 -0.169702,0.13183 -0.371298,0.2882 -0.447992,0.34749 -0.07669,0.0593 -0.204429,0.15872 -0.283863,0.22094 -0.07943,0.0622 -0.345176,0.26772 -0.590547,0.45666 -0.245359,0.18894 -0.739658,0.57204 -1.098432,0.85134 -0.358773,0.2793 -0.746737,0.57914 -0.862133,0.66632 -0.115396,0.0872 -0.215367,0.16486 -0.222157,0.17262 -0.0068,0.008 -0.134524,0.10752 -0.283863,0.22164 -0.149339,0.11413 -0.371496,0.29143 -0.493681,0.394 -0.122186,0.10256 -0.283247,0.22687 -0.357916,0.27624 -0.07467,0.0494 -0.230181,0.16865 -0.345577,0.26511 -0.115396,0.0964 -0.254241,0.2057 -0.308548,0.24279 -0.05432,0.0371 -0.246951,0.18406 -0.428097,0.32661 -0.444474,0.34978 -0.572783,0.4492 -0.645656,0.5003 -0.216521,0.15185 -0.278024,0.19812 -0.597072,0.44923 -0.08569,0.0674 -0.30019,0.23226 -0.476681,0.36625 -0.176492,0.134 -0.426419,0.32377 -0.555389,0.42172 -0.128975,0.0979 -0.356687,0.27268 -0.50602,0.38829 -0.149339,0.11561 -0.443696,0.3435 -0.65413,0.5064 -0.210429,0.16291 -0.488552,0.37876 -0.618059,0.47966 -0.1295,0.10091 -0.340552,0.26395 -0.468991,0.36232 -0.389377,0.29822 -1.500425,1.15776 -1.776289,1.3742 -0.338528,0.2656 -0.470899,0.35411 -0.595245,0.39798 -0.156067,0.0551 -0.422462,0.0438 -0.642835,-0.0272 z m 2.078207,-9.44679 6.17e-4,-2.20257 0.531847,-0.69115 c 0.292524,-0.38013 0.561493,-0.72994 0.597713,-0.77735 0.03623,-0.0474 0.227564,-0.29734 0.425209,-0.55539 0.197646,-0.25805 0.448437,-0.58582 0.557315,-0.72837 0.108877,-0.14255 0.394259,-0.51466 0.63418,-0.82691 0.239928,-0.31226 0.511205,-0.66621 0.602843,-0.78656 0.09163,-0.12035 0.216589,-0.28292 0.277679,-0.36125 0.06111,-0.0783 0.188837,-0.2452 0.28387,-0.3708 0.09503,-0.12562 0.239433,-0.31401 0.320892,-0.41866 l 0.148105,-0.19029 2.41e-4,1.49575 c 2.46e-4,1.51234 0.02222,2.05586 0.119951,2.95209 l 0.03228,0.29621 -0.211953,0.24853 c -0.47883,0.56145 -1.137627,1.34087 -1.322736,1.56493 -0.397111,0.48069 -1.209204,1.44239 -1.563978,1.85211 -0.06465,0.0747 -0.199231,0.24129 -0.299054,0.37026 -0.09984,0.12898 -0.233508,0.29004 -0.297067,0.35792 -0.06356,0.0679 -0.197793,0.22339 -0.298301,0.34557 -0.100508,0.12219 -0.263285,0.31359 -0.361719,0.42534 l -0.178985,0.20317 6.17e-4,-2.20258 z m 5.952217,-1.92488 c -0.152277,-0.95718 -0.251051,-1.84675 -0.251149,-2.26185 0,-0.13057 -0.01759,-0.40401 -0.03901,-0.60766 -0.0292,-0.27761 -0.03932,-0.65129 -0.04031,-1.49337 -0.0012,-1.04214 0.0075,-1.29772 0.07944,-2.30795 0.236143,-3.31825 1.209827,-6.45333 2.698537,-8.68876 1.20084,-1.80317 2.811063,-3.24496 4.743623,-4.24743 1.864902,-0.96738 3.989923,-1.50735 6.664671,-1.6935 0.582467,-0.0406 2.501923,-0.0411 3.122524,-6.2e-4 0.75978,0.0492 1.675485,0.15088 2.172185,0.24122 0.935099,0.17007 1.700471,0.35758 2.43137,0.59567 0.48117,0.15674 1.532862,0.57994 1.752562,0.70524 0.02716,0.0155 0.109705,0.0612 0.183442,0.10157 l 0.134075,0.0734 -0.09705,0.0848 c -0.05339,0.0466 -0.308097,0.26386 -0.566043,0.48276 -0.257951,0.2189 -0.558394,0.47596 -0.667654,0.57126 -0.109254,0.0953 -0.291666,0.251 -0.405352,0.34604 -0.11368,0.095 -0.303011,0.2561 -0.420734,0.35792 -0.117723,0.10182 -0.345287,0.29621 -0.505687,0.43197 -0.160412,0.13576 -0.428085,0.36347 -0.594837,0.50602 -0.166758,0.14255 -0.394531,0.33694 -0.506174,0.43197 -0.111637,0.095 -0.492737,0.41988 -0.846881,0.72189 -0.427851,0.36486 -0.656322,0.54411 -0.680926,0.53424 -0.104717,-0.042 -0.816179,-0.20903 -1.081654,-0.25392 -0.616151,-0.10418 -1.038342,-0.13492 -1.855743,-0.1351 -1.043446,-2.5e-4 -1.692138,0.0724 -2.526872,0.28303 -2.446499,0.61729 -4.201006,2.36525 -5.098471,5.07945 -0.395278,1.19544 -0.673623,2.74517 -0.754255,4.19938 -0.0079,0.14255 -0.02037,0.32742 -0.02772,0.41082 l -0.01333,0.15163 -0.199744,0.16926 c -0.109865,0.0931 -0.335059,0.28589 -0.50044,0.42844 -0.165381,0.14255 -0.432141,0.37026 -0.592806,0.50602 -0.270081,0.22822 -1.449681,1.23415 -1.937245,1.65203 -0.30411,0.26065 -0.76236,0.65113 -1.987058,1.69324 -0.597355,0.50829 -1.218913,1.03821 -1.381245,1.17762 -0.162326,0.1394 -0.301764,0.25346 -0.309856,0.25346 -0.0081,0 -0.05049,-0.22494 -0.09424,-0.49985 z m 26.308854,-13.2835 c 0,-0.006 0.01722,-0.0164 0.03833,-0.0244 0.02197,-0.008 0.03185,-0.004 0.02327,0.01 -0.01451,0.0234 -0.06154,0.0347 -0.06154,0.0147 z M 81.82309,103.76683 c 0.121229,-0.15953 0.307622,-0.40305 0.414216,-0.54118 0.106588,-0.13813 0.277111,-0.3601 0.378933,-0.49328 0.154308,-0.20183 0.780156,-1.01907 2.590215,-3.382299 0.116279,-0.15181 0.555395,-0.72386 0.975808,-1.27122 0.799117,-1.0404 1.493734,-1.94629 2.305678,-3.00695 0.265013,-0.3462 0.579863,-0.75718 0.699666,-0.91331 0.119803,-0.15613 0.294159,-0.38384 0.387451,-0.50602 0.0933,-0.12219 0.250853,-0.32768 0.350132,-0.45666 0.172474,-0.22406 1.41801,-1.85004 1.834127,-2.39434 0.108976,-0.14255 0.504489,-0.65906 0.87891,-1.1478 0.374427,-0.48875 0.874651,-1.14236 1.11161,-1.45248 0.236964,-0.31012 0.55132,-0.72111 0.698579,-0.91331 0.147252,-0.19219 0.344206,-0.44942 0.437665,-0.5716 0.09346,-0.12219 0.297808,-0.38878 0.454097,-0.59242 0.156289,-0.20365 0.41537,-0.54243 0.575733,-0.75286 0.328207,-0.43067 2.173172,-2.83824 2.364478,-3.0855 0.06827,-0.0882 0.34091,-0.44369 0.605855,-0.78988 0.264939,-0.34619 0.957833,-1.25148 1.539747,-2.01175 0.58193,-0.76026 1.16378,-1.52114 1.29301,-1.69085 0.12923,-0.1697 0.45253,-0.5918 0.71846,-0.93799 0.26592,-0.34619 0.57673,-0.75163 0.69067,-0.90096 0.11394,-0.14934 0.27541,-0.36039 0.35884,-0.46899 0.3955,-0.51493 0.53922,-0.70315 0.90476,-1.18484 0.21634,-0.2851 0.56025,-0.73496 0.76423,-0.99969 0.5246,-0.68083 0.79121,-1.03027 0.84833,-1.11188 0.0603,-0.0862 0.28531,-0.37954 0.51974,-0.67772 0.0961,-0.12218 0.35924,-0.46652 0.58484,-0.76519 0.2256,-0.29868 0.43036,-0.56544 0.45503,-0.59279 0.0247,-0.0273 0.12329,-0.1551 0.21917,-0.28387 0.29394,-0.3948 0.46251,-0.61821 0.57855,-0.76676 0.27807,-0.35597 0.63281,-0.81961 0.66646,-0.87104 0.0204,-0.0311 0.0725,-0.10014 0.11584,-0.15337 0.19018,-0.23353 0.40548,-0.50972 0.57575,-0.73856 0.10101,-0.13577 0.19229,-0.25795 0.20285,-0.27153 0.0105,-0.0136 0.0941,-0.1198 0.18564,-0.23605 0.20685,-0.26265 0.37083,-0.47485 0.55198,-0.71428 0.077,-0.10182 0.2273,-0.2983 0.33393,-0.43661 0.10662,-0.13831 0.3233,-0.42156 0.48151,-0.62945 0.41922,-0.55082 0.66688,-0.77086 1.08452,-0.96348 0.10304,-0.0475 0.19433,-0.10462 0.20287,-0.12687 0.009,-0.0222 0.0424,-0.0405 0.0753,-0.0405 0.0328,0 0.16467,-0.0216 0.2929,-0.048 0.12821,-0.0264 0.32105,-0.0568 0.42851,-0.0676 0.23128,-0.0233 0.27112,-0.0194 0.37245,0.0364 0.0295,0.0162 0.12392,0.0359 0.20982,0.0437 0.0966,0.009 0.18208,0.0326 0.22406,0.0626 0.0373,0.0266 0.11827,0.0578 0.17985,0.0693 0.0616,0.0115 0.13099,0.0369 0.15425,0.0564 0.0233,0.0195 0.12562,0.0678 0.22744,0.10744 0.88735,0.34502 1.5859,0.91047 2.10278,1.7021 0.13421,0.20554 0.1798,0.29583 0.30296,0.59987 l 0.093,0.22961 0.002,0.49857 c 0.002,0.48675 6.2e-4,0.50354 -0.0681,0.70838 -0.0783,0.23226 -0.25239,0.59393 -0.3684,0.7652 -0.0678,0.10017 -0.39019,0.49012 -0.68246,0.82557 -0.0611,0.0701 -0.28325,0.33122 -0.49368,0.58023 -1.06364,1.25866 -2.98737,3.53132 -3.14649,3.71721 -0.16494,0.19269 -0.38185,0.4491 -1.61738,1.91193 -0.4644,0.54983 -0.91267,1.08187 -0.99615,1.18229 -0.0835,0.10044 -0.21843,0.26069 -0.29989,0.35613 -0.0815,0.0954 -0.27898,0.32985 -0.43893,0.52089 -0.15996,0.19106 -0.45603,0.54176 -0.65792,0.77934 -0.41556,0.48901 -1.03708,1.22435 -1.28165,1.51635 -0.44442,0.53063 -0.69351,0.8242 -0.80583,0.94975 -0.0679,0.0759 -0.19538,0.22692 -0.28323,0.33553 -0.0879,0.10861 -0.23776,0.28767 -0.33315,0.3979 -0.30791,0.35587 -0.41307,0.48046 -0.5151,0.61025 -0.0551,0.07 -0.18951,0.22749 -0.29882,0.34992 -0.10931,0.12244 -0.3376,0.38815 -0.5073,0.59048 -0.1697,0.20233 -0.54181,0.64191 -0.82691,0.97684 -0.58744,0.69011 -1.17933,1.38833 -1.98706,2.34401 -0.30547,0.36141 -0.60744,0.71767 -0.67104,0.79169 -0.0636,0.074 -0.28927,0.34008 -0.50147,0.59124 -0.34643,0.41002 -1.154168,1.365 -1.752542,2.07199 -0.122186,0.14437 -1.170953,1.38395 -2.330591,2.75464 -1.159638,1.37069 -2.198931,2.59769 -2.309524,2.72666 -0.201164,0.23459 -1.972219,2.32796 -2.504262,2.96002 -0.155228,0.18441 -0.367045,0.43526 -0.470713,0.55745 -0.682284,0.80418 -1.382826,1.631299 -1.641148,1.937689 -0.815055,0.96671 -1.581705,1.87284 -1.925597,2.27594 l -0.271525,0.31827 -1.308255,0.008 c -1.342111,0.008 -1.65177,0.0229 -2.591813,0.12574 -0.505045,0.0552 -1.617278,0.22953 -1.814269,0.28426 -0.04753,0.0132 -0.09507,0.0241 -0.105668,0.0241 -0.01062,0 0.07992,-0.13038 0.201138,-0.2899 z"
       id="path302" /></g></svg>
